<?xml version="1.0" encoding="utf-8"?>
<!-- Generator: Adobe Illustrator 23.0.4, SVG Export Plug-In . SVG Version: 6.00 Build 0)  -->
<svg version="1.1" id="Ebene_1" xmlns="http://www.w3.org/2000/svg" xmlns:xlink="http://www.w3.org/1999/xlink" x="0px" y="0px"
	 viewBox="0 0 841.9 1190.6" style="enable-background:new 0 0 841.9 1190.6;" xml:space="preserve">
<style type="text/css">
	.st0{fill:none;}
</style>
<g>
	<path class="st0" d="M350.8,253.5l9.6,1.2L350.8,253.5C350.8,253.5,350.8,253.5,350.8,253.5z"/>
	<path class="st0" d="M321.9,243c-1.5,0.4-2.8,1.1-3.7,2.2C319.1,244.2,320.3,243.4,321.9,243z"/>
	<path class="st0" d="M411.2,257.7C411.2,257.7,411.2,257.7,411.2,257.7c0.4,5,1.4,22.6-6,31.6C412.8,280.2,411.7,262.8,411.2,257.7
		z"/>
	<path class="st0" d="M381.9,289.9c-6.5-7.6-5.5-21.5-5.5-21.6l-3.4-12.1l3.4,12.1l0,0.1C376.4,269.8,375.6,282.6,381.9,289.9z"/>
	<polygon class="st0" points="408.7,255.1 408.8,255.1 408.8,255.1 	"/>
	<path class="st0" d="M285.2,173.5c1.4-0.1,2.8-0.3,4.1-0.7l0,0C287.9,173.1,286.5,173.3,285.2,173.5z"/>
	<path class="st0" d="M265.3,177.5c-18.5,11.7-26.8,8.1-29.2,6.5c0,0,0,0,0,0c1,0.8,3.2,1.9,6.9,1.9
		C247.4,186,254.6,184.3,265.3,177.5z"/>
	<path class="st0" d="M272.8,170.5c0,0-0.1-0.1-0.1-0.1C272.8,170.4,272.8,170.5,272.8,170.5c0.1,0.1,0.2,0.1,0.3,0.2
		C273,170.6,272.9,170.6,272.8,170.5z"/>
	<path class="st0" d="M234.7,185.8c6,2.4,32.2,12.7,45.3,12.9c6.7,0.1,9.6-0.2,10.8-0.5l-0.3-0.2l1.2-0.9c0.1-0.1,10.9-7,19.8,0
		l15.9,6.7c0.1-1,0.3-2,0.4-2.9l-15.8-8.7l-6.1-6.6c-1.6,0-7.2-0.2-9.1-4.4c-1.5-3.4-5.8-6.7-7.1-7.6c-2.2,0.6-4.5,0.9-6.6,0.9
		c-3.4,0-6.5-0.7-9-2c-15.7,11.9-25.6,14.4-31.1,14.4c-4,0-6.4-1.2-7.6-2.1C235.3,185.2,235,185.5,234.7,185.8z"/>
	<path class="st0" d="M269.5,244.1c5,2.2,10.8,4.4,16.9,6.1c-20.1-5.8-39.1-17.3-42.3-19.3C246.2,232.2,256.5,238.5,269.5,244.1z"/>
	<path class="st0" d="M316.4,252.5C316.4,252.5,316.4,252.5,316.4,252.5c0,0,0-0.2,0-0.5c0,0,0,0,0,0L316.4,252.5z"/>
	<path class="st0" d="M433.3,272.4C433.3,272.4,433.3,272.4,433.3,272.4c-2-0.8-3.8-1.6-5-2.2C429.6,270.8,431.3,271.6,433.3,272.4z
		"/>
	<path class="st0" d="M393.1,294.8L393.1,294.8c-2.9,0-5.5-0.7-7.7-2C387.6,294.1,390.2,294.8,393.1,294.8z"/>
	<path class="st0" d="M437,265c0.4,0.1,0.8,0.1,1.2,0.1C437.8,265.1,437.4,265.1,437,265z"/>
	<path class="st0" d="M426.6,269.2c0.1,0.1,0.2,0.2,0.4,0.3C426.8,269.4,426.7,269.3,426.6,269.2c-0.5-0.4-1.1-0.9-1.7-1.4
		C425.5,268.3,426.1,268.8,426.6,269.2z"/>
	<path class="st0" d="M443.1,262.9c0.3-0.2,0.6-0.4,0.9-0.6c0,0,0.1,0,0.1-0.1c0,0-0.1,0-0.1,0l0,0
		C443.7,262.5,443.4,262.7,443.1,262.9z"/>
	<path class="st0" d="M434.1,271.6c-1.1-2.4-3.1-7.6-2.2-11.3l0-0.1c0,0,0,0.1,0,0.1C430.9,264,433,269.2,434.1,271.6
		C434.1,271.6,434.1,271.6,434.1,271.6z"/>
	<path class="st0" d="M426.6,251.7c0-0.1,0.1-0.2,0.1-0.2c0.3-0.7,0.4-1.4,0.3-2.3c0.1,0.8,0,1.6-0.3,2.3
		C426.6,251.5,426.6,251.6,426.6,251.7z"/>
	<path class="st0" d="M404.2,289c8-9.2,6.3-28.8,6-32.1l-5.7-2.7l-30.1,3l3.1,11.1l0,0.1c0,0.2-1.1,14.2,5.5,21.3
		c2.5,2.8,5.9,4.2,10.1,4.2C397.7,293.8,401.4,292.1,404.2,289z"/>
	<path class="st0" d="M393.1,294.8c2.6,0,5-0.5,7.1-1.5C398.1,294.3,395.8,294.8,393.1,294.8z"/>
	<polygon class="st0" points="423.9,241.6 431.7,240.4 423.9,241.6 	"/>
	<path class="st0" d="M412.1,256.2l0.4,0c0.3,0,0.6,0,0.9,0C412.9,256.2,412.5,256.2,412.1,256.2
		C412.1,256.2,412.1,256.2,412.1,256.2z"/>
	<path class="st0" d="M448.4,250.7l6.5,4.5c1.9,0.1,13.3,0.4,18.6-4.4c-0.1-1.4-0.2-2.8-0.4-4l0-0.2l0-0.1c0.3-3-0.4-5.5-2.1-7.3
		c-3.3-3.7-9.5-4-10-4c-0.8,0.1-6.8,1-10.2,5.4C448.7,243.2,447.9,246.6,448.4,250.7z"/>
	<polygon class="st0" points="464,284.5 464,284.5 437.9,300.7 	"/>
	<polygon class="st0" points="431.1,304.9 400.2,316.4 400.2,316.4 	"/>
	<path class="st0" d="M234.8,184.2C234.8,184.2,234.8,184.2,234.8,184.2c-0.2,0.2-0.4,0.5-0.5,0.7
		C234.4,184.6,234.6,184.4,234.8,184.2z"/>
	<path class="st0" d="M464.1,282.6C464.1,282.6,464.1,282.6,464.1,282.6c-1.3-2.5-2.8-6-3-9.3C461.3,276.7,462.8,280.2,464.1,282.6z
		"/>
	<path class="st0" d="M463.4,283.4c-4.5-1.6-18.7-6.5-28.1-10.2l0,0C444.8,277,459,281.9,463.4,283.4
		C463.4,283.4,463.4,283.4,463.4,283.4z"/>
	<path class="st0" d="M234.1,186.6c3.1,1.3,13.3,5.3,24.1,8.6l0,0C247.4,191.9,237.2,187.9,234.1,186.6
		C234.1,186.6,234.1,186.6,234.1,186.6z"/>
	<path class="st0" d="M456.4,256.2c0.2,0,0.4,0,0.7,0c2.6,0,7.9-0.2,12.4-1.9C464.7,256,459.2,256.2,456.4,256.2L456.4,256.2z"/>
	<path class="st0" d="M460.8,234.2L460.8,234.2c-0.9,0.1-6.7,1-10.5,5.3C454.1,235.3,459.9,234.4,460.8,234.2z"/>
	<polygon class="st0" points="436.2,243.5 446.3,250.5 446.3,250.5 	"/>
	<path class="st0" d="M469.2,261.3c0.3-0.2,0.7-0.4,1-0.6c0.3-0.2,0.6-0.3,0.8-0.5c-0.3,0.2-0.5,0.3-0.8,0.5
		C469.9,260.9,469.6,261.1,469.2,261.3z"/>
	<path class="st0" d="M456.2,257.2c-0.3,2.1-1.4,6.9-4.3,7.8c-0.4,0.1-0.8,0.2-1.2,0.2c-2.2,0-4-1.8-5-3.1c-0.6,0.6-1.1,0.9-1.3,1
		c-3.1,2.4-5.8,3.3-8,2.8c-2-0.5-3.2-2.2-3.9-3.7c0,3.9,2.2,8.7,2.8,10c7.8,3.1,19.3,7.2,27.3,10c-1.9-3.8-3.8-9.3-1.8-13.5
		c2.3-5,5.9-7.1,8.7-8.9c1-0.6,1.9-1.2,2.6-1.7c0.8-0.7,1.1-2.6,1.2-4.8c-4.8,3.3-12.2,3.9-16.4,3.9
		C456.7,257.2,456.5,257.2,456.2,257.2z"/>
	<path class="st0" d="M455.2,257.2C455.2,257.2,455.2,257.2,455.2,257.2c-0.1,0.8-0.4,2-0.8,3.3
		C454.8,259.3,455.1,258.2,455.2,257.2z"/>
	<path class="st0" d="M283.2,199.7c3.3,0,5.5-0.2,6.9-0.4C288.5,199.6,286.2,199.7,283.2,199.7z"/>
	<path class="st0" d="M292.3,198l0.2,0.1l-0.1-0.2C292.3,198,292.3,198,292.3,198L292.3,198z"/>
	<path class="st0" d="M310.9,198L310.9,198c-5.3-4.1-11.4-3-15.1-1.6C299.5,195,305.6,193.8,310.9,198z"/>
	<path class="st0" d="M260,195.8L260,195.8c7.3,2.2,14.6,3.8,20,3.9c0,0,0,0,0,0c0,0,0,0,0,0C274.7,199.6,267.4,197.9,260,195.8z"/>
	<path class="st0" d="M306.1,184.6l0.2,0l0,0c-0.1,0-0.3,0-0.7,0C305.9,184.6,306,184.6,306.1,184.6z"/>
	<path class="st0" d="M291.3,150.2L291.3,150.2l-16.7-2.3v0L291.3,150.2l0.1,0.2c1.1,1.5,10.7,13.8,19.2,17.4c0,0,0,0,0,0
		C301.7,164,291.4,150.4,291.3,150.2z"/>
	<path class="st0" d="M269.9,161.9c0,3.3,1.2,5.9,3.6,7.8c3.7,2.9,10,3.6,16.3,1.9c0.1,0,0.3-0.1,0.4-0.1l0,0l0,0
		c6.5-1.7,14-2.9,18.6-3.5c-8.1-4.3-16.5-14.9-18.1-16.9l-16.5-2.2L269.9,161.9z"/>
	<path class="st0" d="M268.9,161.8c0,0.9,0.1,1.8,0.2,2.6C268.9,163.7,268.9,162.8,268.9,161.8L268.9,161.8L268.9,161.8z"/>
	<path class="st0" d="M329.1,199.4L329.1,199.4c0.5-2.5,1-4.4,1.2-5.1C330.1,195,329.6,196.8,329.1,199.4z"/>
	<path class="st0" d="M328.7,202c0-0.2,0.1-0.4,0.1-0.6l0,0C328.7,201.6,328.7,201.8,328.7,202z"/>
	<path class="st0" d="M297.6,180.5c-1.5-3-4.8-5.8-6.5-7.1c0,0,0,0,0,0C292.8,174.7,296.1,177.5,297.6,180.5z"/>
	<path class="st0" d="M330.4,193.9c-1.2-2.5-2.9-5.7-4.7-9C327.9,188.8,329.7,192.3,330.4,193.9L330.4,193.9z"/>
	<path class="st0" d="M246.6,272.9c1.3,0.9,3.5,2.4,5.6,4.4C250,275.3,247.8,273.7,246.6,272.9z"/>
	<path class="st0" d="M328.2,299.4L328.2,299.4l-0.3,0.1c0,0,0,0-0.1,0C328,299.4,328.1,299.4,328.2,299.4z"/>
	<path class="st0" d="M279,288.5c1.7-0.2,3.2-0.5,4.7-0.7C282.3,288,280.7,288.3,279,288.5c-0.2,0-0.5,0.1-0.7,0.1
		C278.6,288.6,278.8,288.5,279,288.5z"/>
	<polygon class="st0" points="428.3,329.3 433.9,326.4 405.1,319.6 408.6,324.2 	"/>
	<path class="st0" d="M333.1,300.6l65.3,15.4l32.3-12l31.9-19.8c-6.1-2.1-19.5-6.8-28.4-10.4l-0.1,0.1l-0.1-0.1c-4-1.6-7.1-3-8-3.8
		c-2.7-2.2-10.1-8.4-13.6-11.4c0.5,6.3,1,23-6.6,31.7c-3.2,3.6-7.4,5.5-12.6,5.5h0c-4.7,0-8.6-1.6-11.6-4.8
		c-6.8-7.4-6.2-20.7-6.1-22.6l-3.2-11.2l-21.8-2.7l-0.2-0.1c-0.1-0.1-11.2-7-20.2-9.7c-0.1,0-0.1,0-0.2,0l-0.1,0.1l-0.1-0.1
		c-2.3-0.7-4.3-1-5.8-0.9c-2.3,0.1-4,0.9-5.1,2.3c-2,2.5-1.5,6.3-1.5,6.3l0.1,0.9l-0.9,0.2c-14.8,3.6-34-2.6-47.5-8.4
		c-14.6-6.3-25.9-13.5-26-13.6l-0.7-0.5l15.3-34.9c-11.2-3.4-21.7-7.7-24.4-8.7c-2.1,2.3-4.4,4-6.7,5.4l0,0
		c-2,9.2-13.3,10.7-15,10.8c-8.1,3.6-12.6,7.6-13.2,12c-0.6,4.5,3.3,8.3,4,8.9l1.1,2c3.9,7.4,5,14.4,3.3,20.8
		c-0.3,0.9-0.6,1.8-0.9,2.7c2.4,2.2,13.8,11.7,26.8,11c0.7,0,6.9,0.2,13.4,10.3c0.9,0.6,4.7,3.1,7.9,6.3c0.6,0.6,1.2,1.4,1.8,2.2
		c3.3,4.1,7.7,9.7,23,7.7c2.2-0.3,4.2-0.6,6.1-0.9c14.2-2.1,20.7-3.1,43.6,7.8l0.6,0.3v3.6L333.1,300.6z"/>
	<path class="st0" d="M437,327.1L437,327.1c0.8,3.5,4,13.8,12.5,20.2C440.9,340.8,437.8,330.3,437,327.1z"/>
	<polygon class="st0" points="201,225.1 187,222.6 187,222.6 201,225.1 	"/>
	<path class="st0" d="M178.6,230.4l2.1,1.2l22.5-1c-0.6-1.4-1.4-2.9-2.2-4.4l-14.5-2.7L178.6,230.4z"/>
	<path class="st0" d="M232.9,262.1L232.9,262.1c1.4,0.1,5.4,0.9,10,6.4C238,262.6,233.8,262.1,232.9,262.1z"/>
	<path class="st0" d="M211.3,202.7L211.3,202.7L211.3,202.7c-6.9,3-11.3,6.4-13,10.2C200,209.2,204.4,205.8,211.3,202.7z"/>
	<path class="st0" d="M245.4,272.1L245.4,272.1c0,0,0.1,0,0.2,0.1C245.6,272.2,245.5,272.2,245.4,272.1L245.4,272.1
		C245.4,272.1,245.4,272.1,245.4,272.1z"/>
	<path class="st0" d="M222,260.6c3.3,1,6.8,1.7,10.6,1.5C228.8,262.3,225.3,261.7,222,260.6z"/>
	<path class="st0" d="M481.6,360l4.2-4.3l3.9-3.3c-1-1.7-1.9-3-2.3-3.7c-4.2,1.8-8.2,3.1-12,4L481.6,360z"/>
	<path class="st0" d="M488.4,348.4c0.5,0.8,1.3,1.9,2.1,3.4l0,0C489.7,350.3,488.9,349.1,488.4,348.4L488.4,348.4z"/>
	<path class="st0" d="M556.5,358.1c-4-6.2-16.4-7.9-17.9-8l-0.3,0l-6.6-12.1l6.6,12.1C538.5,350.1,552.3,351.6,556.5,358.1z"/>
	<polygon class="st0" points="514.5,197.1 511.3,194.2 514.5,197.1 	"/>
	<path class="st0" d="M484.7,348.7c0.8-0.3,1.6-0.7,2.5-1l0,0C486.4,348.1,485.5,348.4,484.7,348.7z"/>
	<path class="st0" d="M424.6,242.5c3.1,3.7,4.1,6.9,2.9,9.4c-1.9,4.2-9.5,5.2-13.8,5.3c3.4,2.9,10.8,9.1,13.4,11.2
		c0.7,0.6,2.7,1.5,5.5,2.7c-1.2-2.8-2.7-7.5-1.9-11c0.2-0.7,0.4-1.7,1.3-1.7c0.9-0.1,1.2,0.7,1.6,1.7c0.5,1.3,1.4,3.5,3.2,3.9
		c1.6,0.4,3.7-0.4,6.3-2.5l0.1-0.1c0.2-0.1,3.8-2,3-9.6l-15-10.4L424.6,242.5z"/>
	<path class="st0" d="M401.9,316.8l34.7,8.2l0.1-0.1l0.1,0.1l0.8,0.2l0.1,0.6c0,0.2,3,16,15.7,22.8c8.8,4.6,20.1,4,33.6-2
		c9.8-16.3,12.3-30,7.4-40.6c-7.2-15.6-28.4-19.2-28.6-19.3l-0.4-0.1l-0.2-0.3c-0.1-0.1-0.3-0.5-0.7-1.1l-33,20.4L401.9,316.8z"/>
	<path class="st0" d="M451.8,348.9c0.4,0.2,0.8,0.4,1.2,0.7c0.3,0.2,0.7,0.4,1,0.5c-0.3-0.2-0.7-0.3-1-0.5
		C452.6,349.3,452.2,349.1,451.8,348.9z"/>
	<polygon class="st0" points="464.9,283.9 464.9,283.9 464.9,283.9 464.9,283.9 464.9,283.9 464.9,283.9 464.9,283.9 	"/>
	<path class="st0" d="M466,285.7c-0.1-0.2-0.3-0.5-0.6-0.9l0,0c0.3,0.5,0.5,0.8,0.6,1L466,285.7z"/>
	<path class="st0" d="M466.1,285.9c0.1,0,8.5,1.5,16.6,6.3c-1.6-1-3.2-1.8-4.7-2.5c-5.7-2.6-10.7-3.6-11.6-3.8L466.1,285.9
		C466.1,285.9,466.1,285.9,466.1,285.9L466.1,285.9z"/>
	<path class="st0" d="M497.9,316.8c-0.1-4-0.9-7.7-2.5-11.2c-0.4-0.9-0.9-1.8-1.4-2.7c0.5,0.8,1,1.7,1.4,2.7
		C497,309.1,497.8,312.8,497.9,316.8z"/>
	<path class="st0" d="M378.1,241.5C378.1,241.5,378.1,241.5,378.1,241.5c-2.2-0.1-4.3-0.2-6.3-0.5
		C373.8,241.3,375.8,241.4,378.1,241.5z"/>
	<path class="st0" d="M343.8,216.6L343.8,216.6c3-1.5,13-5.4,29.8,0.2l0,0C356.6,211.2,346.7,215.1,343.8,216.6z"/>
	<path class="st0" d="M373.5,217.9c-17-5.7-27-1.5-29.4-0.2c1.1,3.8,7.7,21.8,33.2,22.8c-1.3-1.7-3.1-4.4-3.7-7.2
		C372.7,229.5,373.3,220.6,373.5,217.9z"/>
	<path class="st0" d="M374.4,218.2c-0.2,2.9-0.7,11.4,0.1,14.9C373.7,229.6,374.2,221.1,374.4,218.2
		C374.4,218.2,374.4,218.2,374.4,218.2z"/>
	<path class="st0" d="M378.5,240.5c-1.2-1.5-3.4-4.5-4-7.4C375.2,236.1,377.3,239,378.5,240.5C378.5,240.5,378.5,240.5,378.5,240.5z
		"/>
	<path class="st0" d="M393.8,250.6l0.6,2.5l10.5-1l6.5,3.1c4.4,0.1,12.8-0.6,14.5-4.2c0.8-1.7,0-3.9-2.3-6.8
		c-1.3,3.1-6.1,4.6-6.4,4.6l-0.2,0c-5.8,0.1-13.2-1-20-2.3L393.8,250.6z"/>
	<path class="st0" d="M422.6,243.8c0-0.1,0.1-0.2,0.1-0.4c0,0,0,0,0,0C422.7,243.5,422.7,243.6,422.6,243.8z"/>
	<path class="st0" d="M343.1,218.2c1.3,4.2,7.3,19.5,28.1,22.7C350.4,237.7,344.4,222.3,343.1,218.2L343.1,218.2z"/>
	<path class="st0" d="M416.9,247.9L416.9,247.9L416.9,247.9c0,0,0.8-0.2,1.7-0.7C417.8,247.7,417.1,247.9,416.9,247.9z"/>
	<polygon class="st0" points="312.8,168.6 312.8,168.6 312.8,168.6 	"/>
	<path class="st0" d="M327.7,206.1l-17.3-7.3c-6.5-5.1-14.3-1.8-16.9-0.3c0,0.1,0,0.2-0.1,0.3c-0.3,0.8-0.7,2.2-13.5,1.9
		c-5.4-0.1-12.9-1.8-20.3-4l-14.7,33.5c6,3.7,45,26.9,70.4,21.5c-0.1-1.6,0.1-4.6,2-7c1.5-1.8,3.7-2.8,6.6-3
		c1.2-0.1,2.7,0.1,4.3,0.4l-12.9-19.6l1.7-1.1l14.2,21.4c8.4,2.6,18.6,8.7,20.1,9.7l21.9,2.7l19.3-1.9l-0.7-3.2l3.1-3.9
		c-8-1.6-14.6-3.5-15.5-3.7c-0.1,0-0.1,0-0.2,0l-0.1,0.1l-0.1-0.1c-29.5-0.2-36.2-21.6-37-24.8L327.7,206.1z"/>
	<path class="st0" d="M231.8,187.5c0.2-0.2,0.4-0.4,0.5-0.5l0,0C232.2,187.2,232,187.3,231.8,187.5z"/>
	<path class="st0" d="M233.8,185.4C233.8,185.4,233.8,185.4,233.8,185.4c0.1-0.1,0.1-0.1,0.2-0.2
		C233.9,185.3,233.8,185.3,233.8,185.4z"/>
	<path class="st0" d="M272.4,171.4c-0.1,0-0.1-0.1-0.2-0.1c-2.9-2.3-4.4-5.6-4.4-9.5l0-0.2l4.3-12.8l-1.3-0.2l-2.5-3.1
		c-2.3,0.4-9.7,1.8-17.4,3.8c-12.8,3.4-17.7,6.2-19.6,8.1l4.8,25.5C237.6,184,246.9,190.5,272.4,171.4z"/>
	<path class="st0" d="M211.4,202.7L211.4,202.7C211.4,202.7,211.4,202.7,211.4,202.7L211.4,202.7z"/>
	<path class="st0" d="M225.8,192.2L225.8,192.2c0.3-0.1,0.5-0.3,0.8-0.5C226.3,191.9,226,192,225.8,192.2z"/>
	<path class="st0" d="M203.5,196.3c0.4,0.1,2.2,0.4,5.1,0.4c3.9,0,9.9-0.7,16-3.9c0,0,0,0,0,0C214.6,198.1,204.5,196.5,203.5,196.3z
		"/>
	<path class="st0" d="M292.3,173.1c2,1.6,5.1,4.4,6.4,7.4c1.6,3.5,7.5,3.2,7.6,3.2l0.5,0l6.7,7.1l14.8,8.1c0.5-2.4,1-4.1,1.2-4.8
		c-4.2-8.6-12.3-23.2-16.7-24.5C311.1,169.7,301,170.9,292.3,173.1z"/>
	<path class="st0" d="M231.1,156.3c2.9-2.6,9.4-5.3,19-7.8C240.3,151.1,234,153.7,231.1,156.3L231.1,156.3z"/>
	<path class="st0" d="M252,146.9c8.5-2.1,16.3-3.5,16.7-3.5c0,0,1.6-0.4,1.8-2.2c0.1-1.2-0.3-1.7-0.6-1.9l-17.8,7.3L252,146.9z"/>
	<polygon class="st0" points="269.9,138.1 269.9,138.1 255.2,144.2 269.9,138.1 	"/>
	<path class="st0" d="M250.9,148.3l-0.2,0C250.8,148.3,250.8,148.3,250.9,148.3c0.2-0.1,0.4-0.1,0.6-0.2L250.9,148.3l0.3-2.4
		L250.9,148.3z"/>
	<path class="st0" d="M211.7,202.7c1.9-0.2,11.4-1.7,13.7-9.1c0,0,0,0,0,0C223.1,201,213.5,202.5,211.7,202.7z"/>
	<path class="st0" d="M177,268.3c2.3,0.2,5.4-0.7,8.3-1.9l0,0C182.4,267.6,179.3,268.5,177,268.3z"/>
	<path class="st0" d="M168.1,263.6c0.4,0.5,1.2,1.4,2.4,2.2C169.3,265,168.5,264.1,168.1,263.6z"/>
	<path class="st0" d="M187.2,265.6c2.8-1.3,5.2-2.7,6.5-3.5l0,0C192.4,262.9,190,264.3,187.2,265.6
		C187.2,265.6,187.2,265.6,187.2,265.6z"/>
	<path class="st0" d="M195.5,261L195.5,261c1.9-1.2,6.1-4.4,8.8-9.7c0,0,0,0,0,0C201.6,256.5,197.3,259.8,195.5,261z"/>
	<path class="st0" d="M205.2,249.4c0.2-0.5,0.4-1,0.5-1.5C205.5,248.4,205.4,248.9,205.2,249.4L205.2,249.4z"/>
	<path class="st0" d="M167.8,263.2C167.8,263.2,167.8,263.2,167.8,263.2l0.1,0.2c0,0,0,0.1,0.1,0.1
		C167.9,263.3,167.8,263.2,167.8,263.2L167.8,263.2z"/>
	<path class="st0" d="M189.5,298.2c-0.3-0.4-0.6-0.8-0.9-1.2C188.9,297.4,189.2,297.8,189.5,298.2c6.3,7.5,24.5,7.1,26.2,7.1
		C213.8,305.3,195.7,305.5,189.5,298.2z"/>
	<path class="st0" d="M215.8,305.2C215.8,305.2,215.8,305.2,215.8,305.2c0.4,0,17.7,1.8,27.8,23
		C233.4,306.8,215.9,305.3,215.8,305.2z"/>
	<path class="st0" d="M172.4,275.5c0,0-1.5,2.5-7.3,5.3c4.9-2.4,6.7-4.4,7.2-5.1L172.4,275.5L172.4,275.5L172.4,275.5z"/>
	<path class="st0" d="M131,265l-0.2-0.3l0-0.4c0-0.1,0.1-3.6,3.8-5.3c0.9-0.4,1.8-0.5,2.7-0.1c2.1,0.8,3.5,3.6,4,4.7
		c1,0.7,6,3.9,10.6,1.6c6.1-3.1,15.7-3,15.8-3l0.5,0l0.3,0.4c0,0,2.9,4.1,8.4,4.7c4.2,0.5,12-3.6,15.8-5.9l-4.9-3.9v-3h2v2l4.8,3.7
		c2-1.3,8.2-5.7,10.3-13.4c1.2-4.5,0.9-9.3-0.9-14.4l-23.8,1.1l-2.9-1.6l-4.7,12.7h-17.1v-2h15.7l3-8.1l-2.8,2.8l-1.4-1.4l4.3-4.4
		c-3.7-0.1-6.1-0.7-7.4-2c-0.4-0.4-0.6-0.9-0.7-1.2c-1-0.8-4.9-3.7-7.9-3.2c-1.1,0.2-1.9,0.8-2.5,2c-2.5,4.6-4.8,6.9-6.4,8.1
		l4.9,2.1l-0.8,1.8l-6.5-2.7c-2.9,0.6-5.7,0.9-8.4,0.9c-2.6,0-5-0.3-7.3-0.8c0.9,1.7,1.8,4.3,1,6.9c-1.3,4.3-5.3,7-5.5,7.1l-0.3,0.2
		H120l-4.6,3.6l-1.3-6.9l-2.9,0.5l-7.5-5.4l-0.2,4.9l-5,0.6l-1.3,4.9c0.4,0.1,0.6,0.2,0.6,0.2l0.2,0.1l18.2,10.3l5.2-6.8
		c0.2-0.5,0.7-1.9,2.3-2.8c1.6-0.9,3.7-0.9,6.2,0l0.7,0.2v17.5l2.4,1.3l0.1,0.1c0.1,0.1,2.8,3.3,7.4,6.1c-0.5-2.7-1.4-6-2.6-6.9
		C135,270.2,131.2,265.2,131,265z"/>
	<path class="st0" d="M176.8,269.3c-5.4-0.6-8.5-3.9-9.5-5.2c-2,0-9.7,0.3-14.4,2.8c-6.3,3.2-12.7-1.7-13-1.9l-0.2-0.2l-0.1-0.2
		c-0.4-0.9-1.6-3.3-3-3.8c-0.4-0.2-0.7-0.1-1.1,0c-2,0.9-2.5,2.6-2.6,3.3c0.9,1.1,3.9,5,5.9,6.4c2.4,1.8,3.4,7.7,3.6,9.7
		c5,2.5,11.7,4,19.1,1c8-3.2,10-6.3,10-6.3l0.3-0.5l0.6,0h15.2c-0.4-3.6-1.3-6-1.8-7.1C182.7,268.6,179.3,269.6,176.8,269.3z"/>
	<path class="st0" d="M175.4,230.6L175.4,230.6c-4.4,0-6.4-0.7-7.4-1.5C169,229.9,171,230.7,175.4,230.6z"/>
	<path class="st0" d="M245.3,332.2L245.3,332.2c0.9,1.3,6.9,8,33.3,17.2C252.6,340.3,246.3,333.5,245.3,332.2z"/>
	<path class="st0" d="M118.4,201.1l-0.1,0.6c-0.1,0.5-1.9,10.9-5.4,14.6c0.1,2.6,0.2,4.9,0.2,5.5c0.6,1,3.2,4.8,8,8.1
		c5.1,3.5,13.7,7.1,25.9,4.4c0,0,0,0,0.1,0l0-0.1l0.1,0c0.8-0.4,3.6-2,6.9-8.1c0.9-1.7,2.2-2.7,3.9-3c4.3-0.8,9.3,3.4,9.8,3.9
		l0.3,0.8c0,0,0.1,0.2,0.3,0.4c0.5,0.5,2.3,1.6,7.9,1.3l7.5-6.6l-0.5-0.1l-34.4-42.6c-13.7-7.5-24.7-7.1-31.5-5.4
		c-5.8,1.4-9.6,4-10.9,5l7,17.5L118.4,201.1z"/>
	<path class="st0" d="M149.4,179.3c-6.9-3.7-13.1-5.5-18.5-6.1C136.2,173.8,142.5,175.6,149.4,179.3L149.4,179.3z"/>
	<path class="st0" d="M173.6,192.1c-6.5,0.2-15.2-5.7-20.1-9.5l0.1,0.1C158.5,186.5,167.2,192.3,173.6,192.1z"/>
	<polygon class="st0" points="153,183.4 153,183.4 174.7,210.4 	"/>
	<path class="st0" d="M106.3,191.2L106.3,191.2c1.3,0.5,2.4,0.7,3.1,0.8l-4.8-12c-0.9-2.1-3.2-7-5-9.8c-2,7.8-1.5,13.6,1.4,17.4
		C102.6,189.5,104.5,190.6,106.3,191.2L106.3,191.2z"/>
	<path class="st0" d="M101.7,241.5c-0.5-0.1-1.3-0.1-2.1-0.1c-1.6,0-3.7,0.3-4.6,1.6c-0.9,1.4-0.4,4.1,1.5,7.5l0-4.3l5.1-0.6
		L101.7,241.5z"/>
	<path class="st0" d="M93.3,241.8c2.4-3.5,8.8-2.3,9.6-2.2l0.4,0.2l8.4,6l4-0.7l1.1,5.6l2.6-2h6.9c0.8-0.6,3.5-2.8,4.5-5.8
		c0.9-3-1.3-6.3-1.9-7c-11.8-3.7-17.4-13-17.4-13.2l-0.1-0.2l0-0.2c0-0.1-0.1-3.3-0.3-6.7l0,0l0,0c-0.1-2.8-0.3-5.7-0.4-6.6
		c-0.3-2.2,1.1-9,1.4-10.7l-1.6-4.1c-0.4,0-1.6-0.1-3.1-0.4c0.3,1.1,0.4,2.6,0,3.9c-0.1,0.5-0.3,0.9-0.6,1.3l-3.6,11.8l-0.2,0.2
		c-1.1,0.9-0.6,5,0,7.5l0.3,1.3h-3.6c-1.3,0.8-8.6,5.5-9.1,10c-0.5,4-0.4,4.4,0,7.2c0.2,1.3,0.4,3,0.7,5.6l0,0.4l-0.2,0.3
		c0,0-2.1,3.3-0.3,5.8c1.1,1.4,3,2.5,4.6,3.3C92.4,247.5,91.9,244,93.3,241.8z"/>
	<path class="st0" d="M100.5,217.5c-0.5-2.5-0.9-6.3,0.7-8l1.1-3.5c-1.5,2.1-2.4,2.5-3.3,2.4c-2.2-0.3-3.9-4.1-4.6-6
		c-1.4-0.4-3.1-0.5-4,0.1c-0.4,0.3-0.7,0.7-0.8,1.3c-0.4,2.5,5.9,9.7,10,13.8H100.5z"/>
	<path class="st0" d="M112.4,208.6c0.1,0.8,0.2,2.5,0.3,4.5c1.5-2.8,2.8-7.4,3.5-11.1l-2.6-2.1C113,202.9,112.3,207.2,112.4,208.6z"
		/>
	<path class="st0" d="M124.5,255.6c-1.1,0.6-1.4,1.7-1.4,1.7l-0.2,0.4l-5.1,6.7l10.5,6v-14.9C126.8,255.1,125.5,255.1,124.5,255.6z"
		/>
	<path class="st0" d="M469.4,373.9L469.4,373.9L469.4,373.9c-0.3,0.5-0.6,1-0.9,1.5C468.8,374.9,469.1,374.4,469.4,373.9z"/>
	<path class="st0" d="M494.4,369.4c0.2,1.7,0.5,5.2-0.2,9.3l0,0C494.9,374.6,494.6,371,494.4,369.4L494.4,369.4z"/>
	<path class="st0" d="M491.5,353.5c1.8,3.4,3.6,7.6,3.6,11.2l0,0C495.1,361.1,493.3,356.9,491.5,353.5L491.5,353.5z"/>
	<path class="st0" d="M494.8,366.9c0-0.1,0-0.1,0-0.2l0,0C494.8,366.8,494.8,366.8,494.8,366.9z"/>
	<path class="st0" d="M487.2,357.1L476,368.6l17.6-1.1c1.5-3.5-0.7-9-2.9-13.3L487.2,357.1z"/>
	<path class="st0" d="M490.5,388.1c-0.5,0.7-1,1.3-1.5,1.9C489.5,389.4,490,388.8,490.5,388.1c1.7-2.4,2.7-5,3.3-7.5l0,0
		C493.2,383.1,492.2,385.7,490.5,388.1z"/>
	<path class="st0" d="M493.4,369.4l-19.5,1.3l-3.7,3.7c-4.5,7.5-11.7,11.3-21.5,11.3c-5.4,0-10.4-1.2-13.7-2.2
		c6.5,7.5,14.7,16.4,37.7,13.1c7.7-1.1,13.4-4.2,16.9-9.2C494.4,380.7,493.7,372.1,493.4,369.4z"/>
	<path class="st0" d="M557.7,361.7c0.2,3-1.4,6.4-4.7,10.2C556.4,368.2,557.9,364.7,557.7,361.7z"/>
	<polygon class="st0" points="552.8,372.3 552.8,372.3 542.6,375.2 	"/>
	<path class="st0" d="M331.6,329.2c0.1-1.1-0.4-1.6-0.4-1.6l-0.1-0.1c-7.8-11.2-10.7-19.5-8.4-24.7c1.2-2.7,3.4-3.8,4.6-4.2V296
		c-21.9-10.4-28.2-9.5-41.9-7.4c-1.9,0.3-4,0.6-6.2,0.9c-16.4,2.2-21.5-4.2-24.8-8.4c-0.6-0.7-1.1-1.4-1.7-2
		c-3.5-3.5-7.7-6.1-7.8-6.1l-0.2-0.1l-0.1-0.2c-5.5-8.7-10.8-9.5-11.8-9.5l0,0c-13,0.7-24.4-8.2-27.7-11.1
		c-3.6,6.9-9.7,10.3-10,10.4c-0.2,0.2-3.5,2.2-7.4,4.1c1.2,2.6,3.8,10.3,1,23.7c-0.6,2.9,0,5.3,1.6,7.3c6.1,7.2,24.7,6.7,25.5,6.7
		c0.2,0,20.1,1.6,30.2,27.2c0.5,0.6,6,7.5,32.9,17c0.1,0,4.7,1.5,12.5,6.8C303.5,350,330.6,337.4,331.6,329.2z"/>
	<path class="st0" d="M556.3,359.9c-2.8-7.2-18-8.9-18.1-8.9l-0.5-0.1l-7.6-13.9L495.6,350l-3.3,2.8c2,3.6,3.9,8.3,3.8,12.3l27,14.8
		l29.2-8.4C556.2,366.9,557.5,363.1,556.3,359.9z"/>
	<path class="st0" d="M495.3,368.5c0.2,1.2,0.8,5.4,0,10.3l9.7,1.3l-2.1,10.7l1.2,2.4l16.9-12.1l-25.3-13.9
		C495.6,367.7,495.5,368.1,495.3,368.5z"/>
	<path class="st0" d="M400.3,386.6l-6,1.2L400.3,386.6c0,0,0.1-0.2,0.3-0.4c-0.1,0.1-0.2,0.2-0.2,0.3L400.3,386.6z"/>
	<path class="st0" d="M468.6,373.3l0.1-0.1l4.2-4.3l0-0.1l0.1,0l7.2-7.3l-7-8.3c-7.9,1.3-14.8,0.4-20.7-2.7
		c-11.4-6-15.4-18.6-16.5-22.9l-7.5,3.9l-21.1-5.4l-5.4-7.1l-3.4-0.8l-0.2,0.1l0-0.1l-66.2-15.6l-4-2.1c-0.7,0.2-2.7,0.9-3.7,3.2
		c-1.3,3.1-1,9.6,8.1,22.6c0.3,0.3,1.2,1.4,1,3.3c-0.8,6.6-14.8,16-40.3,27.1c5.2,3.7,11.6,9,18.7,16.4l0.2,0.2l0.1,0.2
		c0,0.1,3.8,8.9,35.4,3.5l0.2,0c0.5,0,11.2,0.9,37.4,11.8l14.5-2.9c1.6-2.1,8.6-10.7,13.9-10.7c1,0,2-0.1,3.1-0.2
		c4.5-0.4,9.7-0.9,15.8,5.7C434.6,381.4,458.4,390.6,468.6,373.3z"/>
	<path class="st0" d="M383.8,389.1c-24.4-10-34.9-11.1-35.9-11.2C349,378,359.7,379.2,383.8,389.1z"/>
	<path class="st0" d="M328.7,322c-5.2-8.6-6.2-13.9-5.6-17.1C322.3,309,324.2,314.7,328.7,322z"/>
	<path class="st0" d="M311.3,373.7C311.3,373.7,311.3,373.7,311.3,373.7L311.3,373.7c0,0.1,0.1,0.1,0.1,0.2
		C311.3,373.8,311.3,373.7,311.3,373.7L311.3,373.7z"/>
	<path class="st0" d="M197.5,215.5c0-0.1,0-0.2,0.1-0.4C197.5,215.3,197.5,215.4,197.5,215.5c0,0.3-0.1,0.6-0.1,0.9
		C197.4,216.2,197.4,215.9,197.5,215.5z"/>
	<path class="st0" d="M331.9,326.9L331.9,326.9C331.8,326.8,331.8,326.8,331.9,326.9L331.9,326.9
		C331.9,326.9,331.9,326.9,331.9,326.9C331.9,326.9,331.9,326.9,331.9,326.9C331.9,326.9,331.9,326.9,331.9,326.9z"/>
	<path class="st0" d="M461.3,398.3c-1.5-0.1-3-0.2-4.4-0.4C458.3,398.1,459.8,398.3,461.3,398.3z"/>
	<path class="st0" d="M433.3,383c0.2,0.2,0.4,0.5,0.6,0.7c0.4,0.4,0.7,0.9,1.1,1.3c-0.4-0.4-0.7-0.8-1.1-1.2
		C433.8,383.5,433.5,383.2,433.3,383z"/>
	<path class="st0" d="M433.8,382.1C433.8,382.1,433.8,382.1,433.8,382.1c2.9,1,8.6,2.7,14.9,2.7c3.8,0,7.1-0.6,10.1-1.8
		C449.4,386.6,438.3,383.6,433.8,382.1z"/>
	<path class="st0" d="M474.4,398.4c2.7,2.5,6.4,5.3,8,4.5c0.6-0.3,1.4-1.7,0.2-7C480.2,397,477.4,397.9,474.4,398.4z"/>
	<path class="st0" d="M384.5,179.6L384.5,179.6c-0.2,0-0.3,0-0.3,0C384.3,179.6,384.4,179.6,384.5,179.6L384.5,179.6z"/>
	<path class="st0" d="M444,199.5L444,199.5c-19.1-2.6-25.1-1.5-25.2-1.5c0.1,0,1.5-0.2,4.5-0.2C427.2,197.8,433.8,198.1,444,199.5z"
		/>
	<path class="st0" d="M184.7,221.1l1.3,0.2l0,0l0,0l13,2.4c-1.4-1.9-3-4.8-2.5-8.4c0.7-5.2,5.6-9.7,14.5-13.6l0.2-0.1
		c0.2,0,9.9-0.9,12.9-7.5c-5.9,2.9-11.7,3.5-15.5,3.5c-3.3,0-5.3-0.4-5.4-0.4c-5-0.9-10.2-8.9-12.1-12.1c-2.5,2.2-9.4,7.6-17.4,7.9
		c-5.5,0.2-12.5-3.7-17.6-7.3L184.7,221.1z"/>
	<path class="st0" d="M393.2,193.7c-3.5,14.8-8.7,20.7-12.4,23c-2.2,1.4-4.2,1.6-5.3,1.6c-0.2,2.9-0.7,11.2,0.1,14.6
		c0.8,3.5,3.7,6.9,4.5,7.8c2.9,0.8,23.9,6.5,36.7,6.3c0.7-0.2,5.6-1.9,5.1-4.7l-0.1-0.2l0.1-0.1l-0.3-1l10.5-1.7l14.3,9.9
		c-0.1-3.9,0.8-7.2,2.9-9.8c4.2-5.3,11.4-6.1,11.7-6.1c0.2,0,7.5,0.1,11.6,4.7c1.8,2,2.7,4.5,2.6,7.5l2-0.4l-2.7-8.7l8.2,1.1
		l2.4,5.9l2.3-0.5l0.1,0l23.8,0.7c6.9-2.7,10.6-5.7,10.7-8.7c0.2-3.7-4.7-6.7-5.6-7.2c-18.3-3.7-18.3-7-18.2-13.6
		c0-1.7,0-3.6-0.3-5.9c-1.3-9.2-12-10.2-13.9-10.3c-8.9,6.2-12.7,7.6-12.9,7.7l-0.4,0.2l-12.7-6.5l-13.9,1.5l-0.1,0
		c-18.5-2.6-24.8-1.6-24.8-1.5c-9.4,3-16.4,1-20.5-1.2C396.1,196.4,394.3,194.9,393.2,193.7z"/>
	<path class="st0" d="M470.9,204.4l-0.1,0c0.6-0.2,3.6-1.5,9.8-5.7C474.8,202.6,471.7,204,470.9,204.4z"/>
	<path class="st0" d="M499.1,213.6c0,0.1,0,0.2,0,0.3c0,0.3,0,0.5,0,0.8c0-0.3,0-0.5,0-0.8C499.1,213.8,499.1,213.7,499.1,213.6z"/>
	<path class="st0" d="M382.4,214.1c2.3-2.1,4.8-5.7,7.1-11.8C387.3,208.4,384.7,212,382.4,214.1z"/>
	<polygon class="st0" points="386.5,180.5 394.2,185.7 394.2,185.7 386.5,180.5 	"/>
	<path class="st0" d="M380,215.9c-1.7,1-3.1,1.3-4.1,1.3C377,217.2,378.4,216.9,380,215.9z"/>
	<path class="st0" d="M406.6,171.3l-1-1.3c-0.1,0-0.2,0-0.2,0l0.2,0L406.6,171.3z"/>
	<path class="st0" d="M393.5,192.5c0.8,0.9,2.1,2.1,4,3.4C395.6,194.7,394.2,193.4,393.5,192.5C393.5,192.5,393.5,192.5,393.5,192.5
		z"/>
	<path class="st0" d="M516.7,226.5L516.7,226.5c-3-0.6-5.4-1.2-7.4-1.7C511.3,225.3,513.7,225.9,516.7,226.5L516.7,226.5z"/>
	<path class="st0" d="M522.9,234.7c-0.2,2.7-2.5,5.2-6.9,7.6C520.4,239.9,522.7,237.4,522.9,234.7c0.3-4.4-5.4-7.7-6.1-8.1
		C517.5,227,523.2,230.3,522.9,234.7z"/>
	<path class="st0" d="M473.8,257.6c0.5-1.2,0.7-3.1,0.8-5.1c0,0,0,0,0,0C474.5,254.4,474.3,256.3,473.8,257.6z"/>
	<path class="st0" d="M474.1,245.6c0.1-2.8-0.7-5.2-2.4-7C473.4,240.5,474.2,242.8,474.1,245.6L474.1,245.6z"/>
	<path class="st0" d="M461.6,234.3c1.8,0.2,7,0.9,10.1,4.3C468.6,235.1,463.5,234.4,461.6,234.3z"/>
	<path class="st0" d="M447.6,254.2c0,1.7-0.3,3-0.6,4.1C447.3,257.2,447.6,255.9,447.6,254.2z"/>
	<path class="st0" d="M451.3,263.1c1.5-0.5,2.5-3.8,2.9-6l-0.1-0.1l-5.5-3.8c0.1,3.4-0.6,5.7-1.5,7.3
		C447.9,261.7,449.7,263.6,451.3,263.1z"/>
	<path class="st0" d="M474.1,247.2L474.1,247.2c0.1,0.6,0.2,1.9,0.3,3.3l0,0C474.4,249.4,474.3,248.3,474.1,247.2z"/>
	<polygon class="st0" points="484,243.5 484,243.5 483.5,242.3 	"/>
	<polygon class="st0" points="477.2,238.7 479,244.6 483,243.7 481.1,239.2 	"/>
	<path class="st0" d="M389.6,167.6L389.6,167.6C389.6,167.6,389.6,167.6,389.6,167.6l0.2,0.3C389.7,167.7,389.6,167.6,389.6,167.6z"
		/>
	<polygon class="st0" points="478,244.6 478,244.6 475.8,237.5 	"/>
	<path class="st0" d="M416.3,198.7c-7,1.6-12.3,0.5-15.9-1.2C404,199.2,409.4,200.4,416.3,198.7z"/>
	<path class="st0" d="M246.5,144.5C246.5,144.5,246.5,144.6,246.5,144.5l-0.2,0.3h0C246.3,144.8,246.4,144.7,246.5,144.5z"/>
	<path class="st0" d="M225.6,144.8L225.6,144.8c-0.1,0.2-0.3,0.4-0.4,0.6c0.1-0.1,0.2-0.2,0.2-0.4L225.6,144.8z"/>
	<path class="st0" d="M313.7,143.6C313.7,143.6,313.7,143.6,313.7,143.6c0,0.1,0,0.2-0.1,0.3C313.7,143.8,313.7,143.7,313.7,143.6
		C313.7,143.6,313.7,143.6,313.7,143.6z"/>
	<path class="st0" d="M246.5,144.5c0.2-0.2,0.4-0.6,0.7-1.1C246.9,143.9,246.7,144.3,246.5,144.5z"/>
	<path class="st0" d="M221.6,150.6h3.3l5.5,5.1c3-2.7,9.6-5.5,19.6-8.2l0.3-2.3l19.6-8.1l0.3,0.1c0.9,0.3,2.6,1.5,2.3,4.2
		c-0.2,1.7-1.1,2.7-2,3.3l1.6,1.9l19.8,2.7l0.3,0.3c0.1,0.2,11.5,15.1,20.4,17.8l5.6-7.2c-0.6-0.6-0.8-1.2-0.9-1.5
		c-1-2-5.4-11.2-4.3-15.3c0,0,0-0.8-3.1-2.5c-12.6-6.5-49.1-13.2-53-8.5c-5.5,6.7-9.4,12.9-9.4,13l-0.3,0.5h-20.7
		C225.2,147.4,223.6,149,221.6,150.6z"/>
	<path class="st0" d="M318,158.3L318,158.3c-0.1-0.2-0.9-1.7-1.8-3.8C316.9,155.9,317.5,157.2,318,158.3L318,158.3z"/>
	<path class="st0" d="M191.6,184l0.1,0.1c0.5,0.9,2.1,3.5,4.2,6.1C193.8,187.7,192.2,185,191.6,184L191.6,184z"/>
	<path class="st0" d="M224.4,146.6c-1.1,1.3-2.7,2.7-4.5,4h0.1C221.7,149.3,223.3,147.9,224.4,146.6z"/>
	<path class="st0" d="M190.6,184.3c-2,1.8-7.7,6.4-14.5,7.5C182.9,190.7,188.6,186.1,190.6,184.3L190.6,184.3z"/>
	<path class="st0" d="M218,151.9L218,151.9c-10.3,6.7-26.4,12.2-26.7,12.3c0,0,0,0,0,0l0.2-0.1C193.7,163.4,208.4,158.2,218,151.9z"
		/>
	<path class="st0" d="M192.2,183.1l0.2,0.4l0,0c1.9,3.4,7.1,11.1,11.2,11.8c0.2,0,18.8,3.7,30.7-12.2l-4.8-25.6l-5.4-5h-5.3
		c-9.6,6.4-24.1,11.6-26.8,12.5c-4.5,7.9-1.1,15.6-0.1,17.5L192.2,183.1z"/>
	<path class="st0" d="M374.1,183.3c0.6-0.5,3.2-2.4,7.6-3.3C377.1,180.9,374.6,182.9,374.1,183.3z"/>
	<path class="st0" d="M365.2,192.7C365.2,192.7,365.2,192.7,365.2,192.7c-6.7,2-14.1-2.8-15-3.3l0,0
		C351,189.9,358.3,194.7,365.2,192.7z"/>
	<path class="st0" d="M318.6,159.4L318.6,159.4c-0.4-0.5-0.6-0.9-0.6-1l0,0l0,0C318.1,158.5,318.2,158.9,318.6,159.4z"/>
	<polygon class="st0" points="454.4,256 454.4,256 448.5,252 448.5,252 	"/>
	<path class="st0" d="M342,175.5c3.3,4.8,6,9.6,7.3,12.1C347.3,184,344.8,179.6,342,175.5z"/>
	<path class="st0" d="M394.9,184.9l12.4-10.9l-2.1-2.9c-10.7,1.7-14.5-0.7-15.8-2.1c-5.8,4.2-3.9,8.9-3.4,9.9L394.9,184.9z"/>
	<path class="st0" d="M374,183.4C374,183.4,374,183.4,374,183.4L374,183.4L374,183.4z"/>
	<path class="st0" d="M330.4,194L330.4,194C330.4,194,330.4,194,330.4,194L330.4,194C330.4,194,330.4,194,330.4,194z"/>
	<path class="st0" d="M320.2,160.6L320.2,160.6c1,0.5,2.3,1,4.3,1.3C322.6,161.6,321.2,161.1,320.2,160.6z"/>
	<polygon class="st0" points="313.4,167.7 318.8,160.9 318.8,160.9 313.4,167.7 	"/>
	<path class="st0" d="M331.3,193.5l0.2,0.4l-0.1,0.4c-0.1,0.2-1.5,4.8-2.1,10.6L343,216c2.7-1.5,13.4-6.2,31.9,0.3
		c0.3,0.1,2.3,0.3,5-1.3c3.5-2.2,8.4-8,11.8-23.2l-0.1-0.1l0.2-0.4l0.1-0.4l0.1,0l1.9-4.2l-8.9-6c-5.8,0.4-9.2,2.8-10.1,3.4
		c-2.1,5.2-5.2,8.4-9.3,9.6c-7.6,2.3-15.6-3.3-15.9-3.5l-0.2-0.1l-0.1-0.2c-0.1-0.3-13.3-26-21.7-26.5c-3.9-0.3-6.4-1-7.9-1.8
		l-5.2,6.8C320.9,172,330.2,191.2,331.3,193.5z"/>
	<path d="M305.7,184.6c-0.1,0-0.3,0-0.4,0C305.4,184.6,305.5,184.6,305.7,184.6z"/>
	<path d="M558.2,359.2c-2.9-7.5-16-9.7-19.2-10.1l-7.2-13c2-1.9,9.8-8.7,22.8-12.5l0.5-0.1l-0.6-1.9l-0.5,0.1
		c-14.4,4.2-22.8,12.1-24,13.3l-35.3,13.2l-3.5,2.9c-1-1.7-1.9-3-2.3-3.7c10-16.8,12.5-31,7.4-42.1c-4-8.7-12-13.8-18-16.5
		c-5.4-2.5-10.3-3.5-11.7-3.8c-1.1-1.6-6.4-10.1-3.9-15.4c2.1-4.4,5.3-6.4,8-8c1-0.6,2-1.2,2.8-1.9c1.7-1.4,2-4.9,1.9-8l0,0l0,0
		c0-1.5-0.2-3-0.3-4.1l12.3-2.7l23.8,0.7l0.2,0l0.2-0.1c7.9-3.1,12-6.6,12.2-10.6c0.3-5.3-6.5-9-6.8-9.2l-0.2-0.1
		c-16.9-3.4-16.8-5.5-16.8-11.6c0-1.8,0-3.8-0.3-6.2c-0.5-3.7-2.3-6.2-4.5-8l3.4-4.5H511l3.3,2.9l9.1-1.8v-4l7.3-1.6l-0.4-2
		l-8.9,1.9v4l-6.5,1.3l-3.1-2.8h-14.1l-4,5.4c-4.6-2.8-10-2.9-10.1-2.9l-0.3,0l-0.3,0.2c-7.2,5-11.1,6.9-12.3,7.5l-12.4-6.4
		l-14.2,1.5c-19.1-2.6-25.1-1.5-25.4-1.5c-8.9,2.8-15.2,1-19-1c-3.1-1.7-5.1-3.8-5.8-4.7l2-4.6l14.2-12.5l-4-5.3l-0.6,0.1
		c-13,2.2-14.8-1.8-14.9-1.8l-0.4-1.3l-1.1,0.7c-6.8,4.3-6.1,9.7-5.4,11.9c-6.7,0.7-10.3,3.8-10.4,4l-0.2,0.2L373,183
		c-1.9,4.7-4.6,7.6-8.1,8.7c-6,1.8-12.8-2.4-14-3.1c-1.7-3.3-14.1-26.8-23.3-27.4c-7.9-0.5-8.6-3-8.6-3.1l-0.1-0.2
		c-0.1-0.1-5.2-10.4-4.3-14c0.6-2.1-2.1-3.7-4.1-4.8c-11.7-6-50.3-14.3-55.5-8c-4.7,5.7-8.3,11.2-9.3,12.7H225l-0.3,0.5
		c-1.1,2.1-3.5,4.2-6.5,6.2H218v0.1c-10.1,6.8-26.8,12.5-27,12.6l-0.4,0.1l-0.2,0.3c-5.1,8.7-1.6,17.1-0.4,19.6
		c-1.9,1.7-8.8,7.4-16.5,7.7c-9,0.3-23-12.1-23.1-12.2l-0.4-0.3l-0.1,0.1c-23.6-12.8-40-3.5-44.1-0.6c-1.4-3-4.2-8.9-6-10.9
		c-2.1-2.3-4.3-15.5-3.8-16.7c0.9-1.6,2.4-10.9,2.7-12.7c0.6-6,0.6-9.6,0-10.8c0.2-0.7,1.8-3.5,4.1-6.6l2.4,6.1l1.3,16.8l2-0.2
		l-1.3-17l-3.2-8.2l-1-2.9c1.4-1.2,5.4-4.5,8.6-5.8c3.9-1.7,17.1-2,17.2-2l0.5,0l0-2l-0.5,0c-0.9,0-6,0.2-10.7,0.7v-7.5h4.2v-2h-6.2
		v9.7c-2.1,0.3-4,0.7-5.3,1.2c-3,1.3-6.6,4.1-8.4,5.6l-2.8-10.2l-7.4-12.4l-1.7,1l7.2,12l3.1,11.2l0,0l0.1,0.4l0.4,1.5l0.1-0.1
		l0.5,1.6c-6.1,8.2-5.4,9.4-4.9,9.9c0.3,0.7,0.2,4.8-0.3,9.5c-0.8,5.2-1.9,11.1-2.4,11.9c-1.3,2.2,1.7,15.3,3.7,18.6
		c-2.6,9.2-2.2,16.2,1.3,20.7c1.6,2.1,3.5,3.3,5.3,4.1c0.3,0.8,0.8,2.6,0.4,4.1c-0.1,0.3-0.2,0.6-0.4,0.8c-0.1,0.1-0.1,0.2-0.5,0.9
		l-0.2,0.4c-3.3,6.2-4.6,7.2-4.9,7.4c-0.8-0.2-2.2-2.6-3.1-5.2l-0.2-0.5l-0.5-0.2c-0.4-0.1-3.9-1.3-6.2,0.1c-1,0.6-1.5,1.5-1.7,2.7
		c-0.6,3.9,6.9,11.9,9.9,14.9c-2.5,1.7-8.6,6.2-9.2,11c-0.5,4.2-0.4,4.8,0,7.8c0.2,1.2,0.4,2.8,0.7,5.2c-0.6,1-2.3,4.7,0,7.7
		c2.3,3.1,7.4,4.7,8.2,5l34.3,19.5c0.7,0.8,4,4.3,9.1,7.1l0,0l0,0c3.4,1.9,7.7,3.3,12.6,3.3c3.1,0,6.1-0.6,9.2-1.8
		c7-2.8,9.8-5.6,10.6-6.6h14.8c0.2,3.5,0,8-1.1,13.4c-0.7,3.5,0,6.5,2.1,9c6.9,8.2,26.3,7.5,27,7.4c0.2,0,18.9,1.9,28.5,26.1
		c0.2,0.3,4.7,7.7,34,17.9c0.1,0,13.3,4.4,32.2,23.9c0.8,1.9,6.3,9.9,37.4,4.6c1,0.1,12.3,1.5,36.9,11.7l0.3,0.1l15.8-3.2l0.2-0.3
		c2.1-2.9,8.6-10.2,12.5-10.2c1.1,0,2.2-0.1,3.3-0.2c4.3-0.4,8.7-0.8,14.2,5.1L431,382l0.3,0.1c0.6,0.7,1.3,1.5,2,2.3
		c5.7,6.7,12.9,15,30.3,15c3,0,6.2-0.2,9.6-0.7c0,0,0.1,0,0.1,0c1.6,1.6,5.8,5.4,8.5,5.4c0.4,0,0.8-0.1,1.1-0.3
		c1.5-0.9,1.7-3.6,0.6-8.3c3.2-1.7,5.8-3.9,7.8-6.8c1.8-2.5,2.9-5.3,3.5-7.9l7.7,1l-1.8,9.3l1.7,3.2l-2.9,2.1l1.2,1.6l22.6-16.2
		l30-8.7l0.2-0.2C558.1,367.8,559.7,363.1,558.2,359.2z M514.5,197.1L514.5,197.1l-3.2-2.9L514.5,197.1z M538.3,350.1l0.3,0
		c1.5,0.2,13.9,1.9,17.9,8C552.3,351.6,538.5,350.1,538.3,350.1l-6.6-12.1L538.3,350.1z M490.5,351.7L490.5,351.7
		c-0.8-1.4-1.6-2.6-2.1-3.4l0,0C488.9,349.1,489.7,350.3,490.5,351.7z M487.4,348.7c0.5,0.7,1.3,2,2.3,3.7l-3.9,3.3l-4.2,4.3
		l-6.2-7.3C479.2,351.8,483.2,350.5,487.4,348.7z M484.7,348.7c0.8-0.3,1.6-0.7,2.5-1l0,0C486.4,348.1,485.5,348.4,484.7,348.7z
		 M495.4,305.7c1.6,3.4,2.4,7.1,2.5,11.2C497.8,312.8,497,309.1,495.4,305.7c-0.4-0.9-0.9-1.8-1.4-2.7
		C494.5,303.9,495,304.8,495.4,305.7z M466.3,285.9c0.9,0.2,6,1.2,11.6,3.8c1.5,0.7,3.1,1.5,4.7,2.5c-8.1-4.9-16.4-6.3-16.6-6.3l0,0
		c0,0,0,0,0,0L466.3,285.9z M465.4,284.8c0.2,0.4,0.4,0.7,0.6,0.9l0.1,0.1C465.9,285.6,465.7,285.3,465.4,284.8L465.4,284.8z
		 M464.9,283.9L464.9,283.9L464.9,283.9C464.9,283.9,464.9,283.9,464.9,283.9L464.9,283.9L464.9,283.9
		C464.9,283.9,464.9,283.9,464.9,283.9C464.9,283.9,464.9,283.9,464.9,283.9z M465.3,286.4l0.2,0.3l0.4,0.1
		c0.2,0,21.4,3.7,28.6,19.3c4.9,10.6,2.4,24.2-7.4,40.6c-13.6,6-24.9,6.6-33.6,2c-12.7-6.7-15.7-22.6-15.7-22.8l-0.1-0.6l-0.8-0.2
		l-0.1-0.1l-0.1,0.1l-34.7-8.2l29.6-11.1l33-20.4C464.9,286,465.2,286.4,465.3,286.4z M454,350c-0.3-0.2-0.7-0.3-1-0.5
		c-0.4-0.2-0.8-0.4-1.2-0.7c0.4,0.2,0.8,0.5,1.2,0.7C453.3,349.7,453.6,349.9,454,350z M449.5,347.3c-8.6-6.4-11.7-16.8-12.5-20.2
		l0,0C437.8,330.3,440.9,340.8,449.5,347.3z M433.9,326.4l-5.6,2.9l-19.7-5.1l-3.5-4.6L433.9,326.4z M328.7,294.5
		c-22.9-11-29.4-10-43.6-7.8c-1.9,0.3-3.9,0.6-6.1,0.9c-15.3,2.1-19.7-3.6-23-7.7c-0.6-0.8-1.2-1.5-1.8-2.2c-3.2-3.2-7-5.7-7.9-6.3
		c-6.5-10.1-12.7-10.3-13.4-10.3c-13,0.7-24.3-8.8-26.8-11c0.4-0.8,0.7-1.7,0.9-2.7c1.8-6.4,0.7-13.4-3.3-20.8l-1.1-2
		c-0.7-0.6-4.7-4.5-4-8.9c0.6-4.4,5.1-8.4,13.2-12c1.7-0.2,13-1.7,15-10.8l0,0c2.3-1.4,4.6-3.2,6.7-5.4c2.6,1.1,13.2,5.3,24.4,8.7
		L242.4,231l0.7,0.5c0.1,0.1,11.4,7.3,26,13.6c13.5,5.8,32.8,12,47.5,8.4l0.9-0.2l-0.1-0.9c0,0-0.5-3.8,1.5-6.3
		c1.1-1.4,2.8-2.1,5.1-2.3c1.5-0.1,3.5,0.2,5.8,0.9l0.1,0.1l0.1-0.1c0.1,0,0.1,0,0.2,0c8.9,2.6,20,9.6,20.2,9.7l0.2,0.1l21.8,2.7
		l3.2,11.2c-0.1,1.9-0.7,15.2,6.1,22.6c2.9,3.2,6.8,4.8,11.6,4.8h0c5.2,0,9.4-1.8,12.6-5.5c7.7-8.8,7.1-25.4,6.6-31.7
		c3.5,3,11,9.2,13.6,11.4c1,0.8,4,2.2,8,3.8l0.1,0.1l0.1-0.1c8.9,3.6,22.2,8.3,28.4,10.4L430.7,304l-32.3,12l-65.3-15.4l-3.9-2.3
		v-3.6L328.7,294.5z M328.2,299.3L328.2,299.3c-0.1,0-0.2,0.1-0.4,0.1c0,0,0,0,0.1,0L328.2,299.3z M283.8,287.8
		c-1.5,0.2-3,0.4-4.7,0.7c-0.2,0-0.5,0.1-0.7,0.1c0.2,0,0.5-0.1,0.7-0.1C280.7,288.3,282.3,288,283.8,287.8z M252.1,277.2
		c-2.1-1.9-4.3-3.5-5.6-4.4C247.8,273.7,250,275.3,252.1,277.2z M245.6,272.2c-0.1-0.1-0.2-0.1-0.2-0.1l0,0c0,0,0,0,0,0L245.6,272.2
		C245.5,272.2,245.6,272.2,245.6,272.2z M242.8,268.5c-4.6-5.5-8.6-6.3-10-6.4l0,0C233.8,262.1,238,262.6,242.8,268.5z M232.6,262.1
		c-3.7,0.2-7.3-0.4-10.6-1.5C225.3,261.7,228.8,262.3,232.6,262.1z M201.1,226.2c0.9,1.5,1.6,3,2.2,4.4l-22.5,1l-2.1-1.2l7.9-6.9
		L201.1,226.2z M187,222.6l13.9,2.6l0,0L187,222.6L187,222.6z M198.3,212.9c1.8-3.7,6.1-7.2,13-10.2l0.1,0l-0.1,0
		C204.4,205.8,200,209.2,198.3,212.9z M211.4,202.7L211.4,202.7C211.4,202.7,211.4,202.7,211.4,202.7L211.4,202.7z M225.4,193.5
		C225.4,193.5,225.4,193.5,225.4,193.5c-2.3,7.5-11.8,8.9-13.7,9.1C213.5,202.5,223.1,201,225.4,193.5z M224.6,192.8
		c-6,3.2-12.1,3.9-16,3.9c-2.8,0-4.7-0.3-5.1-0.4C204.5,196.5,214.6,198.1,224.6,192.8C224.6,192.8,224.6,192.8,224.6,192.8z
		 M225.8,192.2c0.3-0.2,0.5-0.3,0.8-0.5C226.3,191.9,226,192,225.8,192.2L225.8,192.2z M231.8,187.5c0.2-0.2,0.4-0.4,0.5-0.5l0,0
		C232.2,187.2,232,187.3,231.8,187.5z M233.8,185.4c0.1-0.1,0.1-0.1,0.2-0.2C233.9,185.3,233.8,185.3,233.8,185.4
		C233.8,185.4,233.8,185.4,233.8,185.4z M251.1,149.2c7.7-2,15.1-3.4,17.4-3.8l2.5,3.1l1.3,0.2l-4.3,12.8l0,0.2
		c-0.1,4,1.4,7.3,4.4,9.5c0.1,0,0.1,0.1,0.2,0.1c-25.5,19.1-34.8,12.6-36.1,11.5l-4.8-25.5C233.4,155.4,238.3,152.6,251.1,149.2z
		 M231.1,156.3L231.1,156.3c2.9-2.6,9.2-5.2,19-7.8C240.5,151,234,153.7,231.1,156.3z M251.5,148.1c-0.2,0.1-0.4,0.1-0.6,0.2
		c-0.1,0-0.1,0-0.2,0l0.2,0l0.3-2.4l-0.3,2.4L251.5,148.1z M269.9,139.2c0.3,0.2,0.8,0.8,0.6,1.9c-0.2,1.8-1.7,2.2-1.8,2.2
		c-0.3,0.1-8.2,1.4-16.7,3.5l0-0.4L269.9,139.2z M255.2,144.2l14.7-6h0c0,0,0,0,0,0L255.2,144.2z M329.4,194
		c-0.2,0.7-0.7,2.5-1.2,4.8l-14.8-8.1l-6.7-7.1l-0.5,0c-0.1,0-6,0.4-7.6-3.2c-1.3-3-4.4-5.9-6.4-7.4c8.7-2.1,18.8-3.3,20.4-3.5
		C317.1,170.9,325.2,185.4,329.4,194z M312.8,168.6L312.8,168.6C312.8,168.6,312.8,168.6,312.8,168.6
		C312.8,168.6,312.8,168.6,312.8,168.6z M374.5,233.1c0.7,3,2.8,5.9,4,7.4c0,0,0,0,0,0C377.3,239,375.2,236.1,374.5,233.1
		c-0.8-3.5-0.3-12-0.1-14.9c0,0,0,0,0,0C374.2,221.1,373.7,229.6,374.5,233.1z M378.1,241.5c-2.2-0.1-4.3-0.2-6.3-0.5
		C373.8,241.3,375.8,241.4,378.1,241.5C378.1,241.5,378.1,241.5,378.1,241.5z M377.2,240.5c-25.5-1-32.1-19-33.2-22.8
		c2.5-1.3,12.5-5.5,29.4,0.2c-0.2,2.7-0.8,11.7,0.1,15.4C374.2,236.1,375.9,238.8,377.2,240.5z M373.5,216.8
		c-16.7-5.6-26.8-1.7-29.8-0.2l0,0C346.7,215.1,356.6,211.2,373.5,216.8L373.5,216.8z M371.2,240.9c-20.8-3.2-26.8-18.5-28.1-22.7
		l0,0C344.4,222.3,350.4,237.7,371.2,240.9z M379,242.5L379,242.5l0.1,0c0.1,0,0.1,0,0.2,0c0.9,0.2,7.4,2.1,15.5,3.7l-3.1,3.9
		l0.7,3.2l-19.3,1.9l-21.9-2.7c-1.5-1-11.7-7.1-20.1-9.7l-14.2-21.4l-1.7,1.1l12.9,19.6c-1.6-0.3-3.1-0.5-4.3-0.4
		c-2.9,0.2-5.1,1.2-6.6,3c-1.9,2.4-2.1,5.4-2,7c-25.4,5.5-64.4-17.8-70.4-21.5l14.7-33.5c7.4,2.2,14.9,3.9,20.3,4
		c12.8,0.2,13.2-1.1,13.5-1.9c0-0.1,0.1-0.2,0.1-0.3c2.6-1.4,10.3-4.8,16.9,0.3l17.3,7.3l14.3,11.6
		C342.8,220.9,349.4,242.3,379,242.5z M416.9,249l0.2,0c0.2-0.1,5.1-1.5,6.4-4.6c2.2,2.8,3,5.1,2.3,6.8c-1.6,3.6-10.1,4.3-14.5,4.2
		l-6.5-3.1l-10.5,1l-0.6-2.5l3.2-3.9C403.7,248,411.1,249.1,416.9,249z M416.9,248L416.9,248c0.3-0.1,1-0.3,1.8-0.7
		C417.7,247.7,416.9,247.9,416.9,248L416.9,248z M422.6,243.8c0-0.1,0.1-0.3,0.1-0.4c0,0,0,0,0,0
		C422.7,243.5,422.7,243.6,422.6,243.8z M446.5,251.8c0.9,7.6-2.8,9.5-3,9.6l-0.1,0.1c-2.6,2.1-4.8,2.9-6.3,2.5
		c-1.8-0.5-2.7-2.6-3.2-3.9c-0.4-1-0.7-1.8-1.6-1.7c-0.9,0.1-1.2,1.1-1.3,1.7c-0.9,3.6,0.7,8.3,1.9,11c-2.8-1.2-4.8-2.1-5.5-2.7
		c-2.6-2.1-10-8.3-13.4-11.2c4.3-0.2,11.9-1.1,13.8-5.3c1.1-2.5,0.1-5.7-2.9-9.4l6.8-1.1L446.5,251.8z M436.2,243.5l10.2,7
		c0,0,0,0,0,0L436.2,243.5z M444.1,262.2c0,0-0.1,0.1-0.1,0.1c-0.3,0.2-0.6,0.4-0.9,0.6c0.3-0.2,0.6-0.4,0.8-0.6L444.1,262.2
		C444,262.3,444,262.3,444.1,262.2z M438.2,265c-0.4,0-0.8,0-1.2-0.1C437.4,265.1,437.8,265.1,438.2,265z M431.8,260.3
		c0,0,0-0.1,0-0.1L431.8,260.3c-0.9,3.7,1.1,8.9,2.2,11.3c0,0,0,0,0,0C433,269.2,430.9,264,431.8,260.3z M433.3,272.4
		c-2-0.8-3.8-1.6-5-2.2C429.6,270.8,431.3,271.6,433.3,272.4C433.3,272.4,433.3,272.4,433.3,272.4z M427,269.5
		c-0.2-0.1-0.3-0.2-0.4-0.3c-0.5-0.4-1.1-0.9-1.7-1.4c0.7,0.6,1.3,1.1,1.7,1.4C426.7,269.3,426.8,269.4,427,269.5z M427,249.2
		c0.1,0.8,0,1.6-0.3,2.3c0,0.1-0.1,0.2-0.1,0.2c0-0.1,0.1-0.2,0.1-0.2C427,250.8,427.1,250,427,249.2z M423.9,241.6
		C423.9,241.6,423.9,241.6,423.9,241.6l7.8-1.3L423.9,241.6z M413.4,256.2c-0.4,0-0.7,0-0.9,0l-0.4,0c0,0,0,0,0,0
		C412.5,256.2,412.9,256.2,413.4,256.2z M393.1,293.8c-4.2,0-7.6-1.4-10.1-4.2c-6.6-7.1-5.6-21.1-5.5-21.3l0-0.1l-3.1-11.1l30.1-3
		l5.7,2.7c0.4,3.3,2.1,22.9-6,32.1C401.4,292.1,397.7,293.8,393.1,293.8z M400.2,293.3c-2.1,1-4.4,1.5-7.1,1.5
		C395.8,294.8,398.1,294.3,400.2,293.3z M393.1,294.8L393.1,294.8c-2.9,0-5.5-0.7-7.7-2C387.6,294.1,390.2,294.8,393.1,294.8z
		 M373.1,256.2l3.4,12.1c0,0.1-1.1,14,5.5,21.6c-6.3-7.3-5.6-20.1-5.5-21.5l0-0.1L373.1,256.2z M408.7,255.1l0.1,0.1h0L408.7,255.1z
		 M411.2,257.6C411.2,257.7,411.2,257.7,411.2,257.6c0.5,5.1,1.6,22.5-6,31.6C412.7,280.3,411.7,262.7,411.2,257.6z M360.4,254.7
		l-9.6-1.2c0,0,0,0-0.1,0L360.4,254.7z M321.9,243c-1.5,0.4-2.8,1.1-3.7,2.2C319.1,244.2,320.3,243.4,321.9,243z M316.4,252.5
		C316.4,252.5,316.4,252.5,316.4,252.5l0-0.4c0,0,0,0,0,0C316.3,252.3,316.4,252.4,316.4,252.5z M286.4,250.2
		c-6.1-1.7-11.9-3.9-16.9-6.1c-13-5.6-23.3-11.9-25.4-13.2C247.2,232.8,266.2,244.4,286.4,250.2z M243.1,187
		c5.5,0,15.4-2.5,31.1-14.4c2.5,1.3,5.6,2,9,2c2.2,0,4.4-0.3,6.6-0.9c1.2,0.9,5.6,4.2,7.1,7.6c1.8,4.2,7.5,4.4,9.1,4.4l6.1,6.6
		l15.8,8.7c-0.2,0.9-0.3,1.9-0.4,2.9l-15.9-6.7c-8.9-6.9-19.7,0-19.8,0l-1.2,0.9l0.3,0.2c-1.2,0.3-4.1,0.6-10.8,0.5
		c-13.1-0.3-39.2-10.5-45.3-12.9c0.3-0.3,0.5-0.6,0.8-1C236.7,185.7,239.1,187,243.1,187z M236.1,184C236.1,184,236.2,184,236.1,184
		c2.4,1.6,10.7,5.2,29.2-6.5c-10.7,6.8-17.9,8.4-22.3,8.4C239.3,186,237.2,184.8,236.1,184z M272.7,170.4c0,0,0.1,0.1,0.1,0.1
		c0.1,0.1,0.2,0.1,0.3,0.2c-0.1-0.1-0.2-0.1-0.3-0.2C272.8,170.5,272.8,170.4,272.7,170.4z M285.2,173.5c1.4-0.1,2.8-0.3,4.1-0.7
		l0,0C287.9,173.1,286.5,173.3,285.2,173.5z M291.1,173.4C291.1,173.4,291.1,173.4,291.1,173.4c1.7,1.3,5.1,4.1,6.6,7.1
		C296.1,177.5,292.8,174.7,291.1,173.4z M304.9,184.6c0.1,0,0.2,0,0.3,0C305.1,184.6,305,184.6,304.9,184.6z M305.2,184.6
		c0.2,0,0.3,0,0.4,0c0.4,0,0.7,0,0.7,0l0,0l-0.2,0c-0.1,0-0.3,0-0.5,0C305.5,184.6,305.4,184.6,305.2,184.6z M310.9,198L310.9,198
		c-5.3-4.2-11.4-3-15.1-1.6C299.5,195,305.6,193.8,310.9,198z M292.5,198.1l-0.2-0.1l0,0c0,0,0,0,0.1-0.1L292.5,198.1z M290.1,199.4
		c-1.4,0.2-3.6,0.3-6.9,0.4C286.2,199.7,288.5,199.6,290.1,199.4z M280,199.7C280,199.7,280,199.7,280,199.7
		c-5.3-0.1-12.7-1.8-20-3.9l0,0C267.4,197.9,274.7,199.6,280,199.7C280,199.7,280,199.7,280,199.7z M328.7,202
		c0-0.2,0.1-0.4,0.1-0.6l0,0C328.7,201.6,328.7,201.8,328.7,202z M329.1,199.4c0.5-2.5,1-4.4,1.2-5.1
		C330.1,195,329.6,196.9,329.1,199.4L329.1,199.4z M325.7,184.8c1.8,3.3,3.5,6.5,4.7,9l0-0.1C329.7,192.3,327.9,188.8,325.7,184.8z
		 M310.6,167.8c-8.5-3.6-18.1-15.9-19.2-17.4l-0.1-0.2l-16.7-2.3v0l16.7,2.3l0,0C291.4,150.4,301.7,164,310.6,167.8
		C310.6,167.8,310.6,167.8,310.6,167.8z M290.7,151.2c1.5,2,10,12.6,18.1,16.9c-4.5,0.6-12,1.8-18.6,3.5l0,0l0,0
		c-0.1,0-0.3,0.1-0.4,0.1c-6.3,1.7-12.6,1-16.3-1.9c-2.4-1.9-3.6-4.5-3.6-7.8l4.4-13L290.7,151.2z M269.1,164.5
		c-0.2-0.8-0.3-1.7-0.2-2.6l0-0.1l0,0.1C268.9,162.8,268.9,163.7,269.1,164.5z M234.8,184.2c-0.2,0.2-0.4,0.5-0.5,0.7
		C234.4,184.6,234.6,184.4,234.8,184.2C234.8,184.2,234.8,184.2,234.8,184.2z M258.1,195.2L258.1,195.2c-10.7-3.3-20.9-7.3-24.1-8.6
		c0,0,0,0,0,0C237.2,187.9,247.4,191.9,258.1,195.2z M435.3,273.2L435.3,273.2c9.5,3.8,23.6,8.7,28.1,10.2c0,0,0,0,0,0
		C459,281.9,444.8,277,435.3,273.2z M464,284.5C464,284.5,464,284.5,464,284.5l-26.2,16.2L464,284.5z M431.1,304.9l-30.9,11.5l0,0
		L431.1,304.9z M464.1,282.6C464.1,282.6,464.1,282.6,464.1,282.6c-1.3-2.5-2.8-6-3-9.3C461.3,276.6,462.8,280.2,464.1,282.6z
		 M470.2,260.7c-0.3,0.2-0.7,0.4-1,0.6C469.6,261.1,469.9,260.9,470.2,260.7c0.3-0.2,0.6-0.3,0.8-0.5
		C470.8,260.3,470.5,260.5,470.2,260.7z M472.3,258.1c-0.7,0.6-1.5,1.1-2.6,1.7c-2.8,1.7-6.4,3.9-8.7,8.9c-2,4.2-0.1,9.7,1.8,13.5
		c-8.1-2.8-19.6-6.9-27.3-10c-0.6-1.3-2.9-6.1-2.8-10c0.7,1.5,1.9,3.1,3.9,3.7c2.2,0.6,4.9-0.4,8-2.8c0.2-0.1,0.7-0.4,1.3-1
		c1,1.3,2.8,3.1,5,3.1c0.4,0,0.8-0.1,1.2-0.2c2.9-0.9,4-5.8,4.3-7.8c0.2,0,0.5,0,0.8,0c4.3,0,11.6-0.5,16.4-3.9
		C473.4,255.5,473.1,257.4,472.3,258.1z M450.8,240.6c3.5-4.4,9.5-5.3,10.2-5.4c0.5,0,6.7,0.3,10,4c1.7,1.9,2.4,4.3,2.1,7.3l0,0.1
		l0,0.2c0.2,1.2,0.3,2.6,0.4,4c-5.3,4.8-16.7,4.5-18.6,4.4l-6.5-4.5C447.9,246.6,448.7,243.2,450.8,240.6z M450.4,239.5
		c3.8-4.3,9.6-5.2,10.5-5.3l0,0C459.9,234.4,454.1,235.3,450.4,239.5z M469.4,254.3c-4.5,1.7-9.7,1.9-12.4,1.9c-0.2,0-0.5,0-0.7,0
		l0,0C459.2,256.2,464.7,256,469.4,254.3z M455.2,257.2c-0.2,1-0.4,2.1-0.8,3.3C454.8,259.2,455.1,258,455.2,257.2
		C455.2,257.2,455.2,257.2,455.2,257.2z M454.4,256L454.4,256l-5.9-4.1c0,0,0,0,0,0L454.4,256z M448.6,253.2l5.5,3.8l0.1,0.1
		c-0.4,2.2-1.4,5.5-2.9,6c-1.6,0.5-3.4-1.4-4.3-2.7C448,259,448.7,256.6,448.6,253.2z M447,258.3c0.4-1.1,0.6-2.4,0.6-4.1
		C447.6,255.9,447.3,257.2,447,258.3z M471.7,238.6c-3.1-3.4-8.3-4.2-10.1-4.3C463.5,234.4,468.6,235.1,471.7,238.6
		c1.7,1.9,2.4,4.2,2.4,7l0,0C474.2,242.8,473.4,240.5,471.7,238.6z M473.8,257.6c0.5-1.3,0.7-3.2,0.7-5.1c0,0,0,0,0,0
		C474.5,254.5,474.3,256.4,473.8,257.6z M474.1,247.2L474.1,247.2c0.2,1.1,0.3,2.2,0.3,3.3l0,0C474.4,249,474.2,247.8,474.1,247.2z
		 M478,244.6l-2.2-7.1L478,244.6L478,244.6z M479,244.6l-1.8-5.8l3.9,0.5l1.9,4.5L479,244.6z M484,243.5l-0.5-1.2L484,243.5
		L484,243.5z M522.9,234.7c-0.2,2.7-2.5,5.2-6.9,7.6C520.4,239.9,522.7,237.4,522.9,234.7c0.3-4.4-5.4-7.7-6.1-8.1
		C517.5,227,523.2,230.3,522.9,234.7z M516.6,226.5L516.6,226.5L516.6,226.5c-2.9-0.6-5.3-1.2-7.4-1.7
		C511.3,225.3,513.7,225.9,516.6,226.5z M499.1,213.9c0-0.1,0-0.2,0-0.3C499.1,213.7,499.1,213.8,499.1,213.9c0,0.3,0,0.5,0,0.8
		C499.1,214.4,499.1,214.2,499.1,213.9z M470.9,204.4c0.9-0.4,3.9-1.8,9.7-5.6c-6.3,4.1-9.2,5.4-9.8,5.7L470.9,204.4z M444,199.5
		L444,199.5c-10.2-1.4-16.7-1.7-20.6-1.7c-3.1,0-4.4,0.2-4.5,0.2C418.9,198,425,196.9,444,199.5z M416.3,198.7
		c-6.9,1.6-12.3,0.5-15.9-1.2C404,199.2,409.4,200.4,416.3,198.7z M419.1,199c0.1,0,6.4-1,24.8,1.5l0.1,0l13.9-1.5l12.7,6.5l0.4-0.2
		c0.2-0.1,3.9-1.5,12.9-7.7c1.9,0.1,12.7,1.1,13.9,10.3c0.3,2.3,0.3,4.2,0.3,5.9c-0.1,6.5-0.1,9.8,18.2,13.6
		c0.8,0.5,5.8,3.5,5.6,7.2c-0.2,3.1-3.8,6-10.7,8.7l-23.8-0.7l-0.1,0l-2.3,0.5l-2.4-5.9l-8.2-1.1l2.7,8.7l-2,0.4
		c0-3-0.9-5.5-2.6-7.5c-4.1-4.6-11.4-4.7-11.6-4.7c-0.3,0-7.5,0.8-11.7,6.1c-2.1,2.7-3.1,6-2.9,9.8l-14.3-9.9l-10.5,1.7l0.3,1
		l-0.1,0.1l0.1,0.2c0.5,2.7-4.4,4.5-5.1,4.7c-12.8,0.2-33.8-5.5-36.7-6.3c-0.8-0.8-3.7-4.3-4.5-7.8c-0.8-3.4-0.3-11.7-0.1-14.6
		c1.2,0,3.1-0.2,5.3-1.6c3.8-2.3,8.9-8.2,12.4-23c1.1,1.2,2.9,2.7,5.4,4.1C402.7,200,409.6,202,419.1,199z M376,217.3
		c1-0.1,2.4-0.4,4.1-1.3C378.4,216.9,377,217.2,376,217.3z M382.4,214.1c2.3-2.1,4.8-5.7,7.1-11.8
		C387.3,208.4,384.7,212,382.4,214.1z M397.4,195.9c-1.9-1.3-3.2-2.5-4-3.4c0,0,0,0,0,0C394.2,193.4,395.6,194.7,397.4,195.9z
		 M394.2,185.7l-7.7-5.2l0,0L394.2,185.7L394.2,185.7z M405.6,170l1,1.3L405.6,170l-0.2,0C405.4,170.1,405.5,170,405.6,170z
		 M389.6,167.6L389.6,167.6c0,0,0.1,0.2,0.2,0.3L389.6,167.6C389.6,167.6,389.6,167.6,389.6,167.6z M389.4,169
		c1.3,1.5,5.2,3.9,15.8,2.1l2.1,2.9l-12.4,10.9l-9-6.1C385.4,177.9,383.5,173.2,389.4,169z M384.4,179.6L384.4,179.6L384.4,179.6
		c0,0-0.1,0-0.3,0C384.3,179.6,384.3,179.6,384.4,179.6z M381.7,180c-4.4,0.9-7,2.8-7.6,3.3C374.6,182.9,377.1,180.9,381.7,180z
		 M374,183.4L374,183.4L374,183.4C374,183.4,374,183.4,374,183.4z M350.3,189.4c0.8,0.6,8.3,5.3,15,3.3c0,0,0,0,0,0
		C358.3,194.7,351,189.9,350.3,189.4L350.3,189.4z M349.3,187.6c-1.3-2.5-4-7.3-7.3-12.1C344.8,179.6,347.3,184,349.3,187.6z
		 M320.2,160.6c1,0.5,2.3,1,4.3,1.3C322.6,161.6,321.2,161.1,320.2,160.6L320.2,160.6z M319.6,161.4c1.5,0.8,4,1.6,7.9,1.8
		c8.4,0.5,21.6,26.2,21.7,26.5l0.1,0.2l0.2,0.1c0.3,0.2,8.3,5.8,15.9,3.5c4.1-1.2,7.2-4.5,9.3-9.6c0.8-0.7,4.3-3.1,10.1-3.4l8.9,6
		l-1.9,4.2l-0.1,0l-0.1,0.4l-0.2,0.4l0.1,0.1c-3.4,15.2-8.3,21-11.8,23.2c-2.6,1.6-4.6,1.3-5,1.3c-18.5-6.5-29.2-1.7-31.9-0.3
		l-13.7-11.1c0.6-5.8,2.1-10.4,2.1-10.6l0.1-0.4l-0.2-0.4c-1.1-2.3-10.5-21.6-17-25.4L319.6,161.4z M330.4,194L330.4,194
		C330.4,194,330.4,194,330.4,194L330.4,194C330.4,194,330.4,194,330.4,194z M318.8,160.9l-5.3,6.9c0,0,0,0,0,0L318.8,160.9
		C318.8,160.9,318.8,160.9,318.8,160.9z M318.1,158.4c0,0.1,0.1,0.5,0.6,1l0,0C318.2,158.9,318.1,158.5,318.1,158.4L318.1,158.4
		L318.1,158.4z M318,158.3L318,158.3L318,158.3c-0.5-1-1.1-2.4-1.7-3.8C317.2,156.6,317.9,158.1,318,158.3z M313.7,143.6
		C313.7,143.6,313.7,143.6,313.7,143.6C313.7,143.6,313.7,143.6,313.7,143.6c0,0.1,0,0.2-0.1,0.3
		C313.7,143.8,313.7,143.7,313.7,143.6z M247.3,143.4c-0.3,0.5-0.6,0.9-0.7,1.1C246.7,144.3,246.9,143.9,247.3,143.4z M246.5,144.6
		C246.5,144.6,246.5,144.5,246.5,144.6c-0.1,0.1-0.1,0.2-0.1,0.2h0L246.5,144.6z M225.6,144.8L225.6,144.8l-0.1,0.2
		c-0.1,0.1-0.2,0.2-0.2,0.4C225.4,145.2,225.5,145,225.6,144.8z M226.2,145.8h20.7l0.3-0.5c0-0.1,4-6.3,9.4-13
		c3.9-4.7,40.4,2,53,8.5c3.1,1.6,3.1,2.5,3.1,2.5c-1.1,4.1,3.3,13.3,4.3,15.3c0.1,0.3,0.3,0.9,0.9,1.5l-5.6,7.2
		c-8.9-2.7-20.2-17.6-20.4-17.8l-0.3-0.3l-19.8-2.7l-1.6-1.9c0.9-0.6,1.8-1.7,2-3.3c0.3-2.7-1.4-4-2.3-4.2l-0.3-0.1l-19.6,8.1
		l-0.3,2.3c-10,2.7-16.6,5.4-19.6,8.2l-5.5-5.1h-3.3C223.6,149,225.2,147.4,226.2,145.8z M224.4,146.6c-1.1,1.3-2.6,2.7-4.4,4h-0.1
		C221.7,149.3,223.3,147.9,224.4,146.6z M191.3,164.2c0.2-0.1,16.4-5.6,26.7-12.4v0c-9.6,6.3-24.3,11.5-26.5,12.3L191.3,164.2
		C191.3,164.2,191.3,164.2,191.3,164.2z M192,165.1c2.7-0.9,17.2-6.1,26.8-12.5h5.3l5.4,5l4.8,25.6c-11.9,15.8-30.5,12.2-30.7,12.2
		c-4.1-0.8-9.2-8.5-11.2-11.8l0,0l-0.2-0.4l-0.3-0.5C191,180.7,187.5,173,192,165.1z M195.8,190.3c-2.1-2.6-3.6-5.2-4.2-6.1
		l-0.1-0.1l0,0C192.2,185,193.8,187.7,195.8,190.3z M190.6,184.3L190.6,184.3c-2,1.8-7.7,6.4-14.5,7.5
		C182.9,190.6,188.6,186,190.6,184.3z M173.7,193.1c8-0.3,14.9-5.7,17.4-7.9c1.9,3.2,7.1,11.2,12.1,12.1c0,0,2.1,0.4,5.4,0.4
		c3.8,0,9.6-0.6,15.5-3.5c-2.9,6.7-12.7,7.5-12.9,7.5l-0.2,0.1c-8.9,3.9-13.8,8.5-14.5,13.6c-0.5,3.5,1.1,6.5,2.5,8.4l-13-2.4l0,0
		l0,0l-1.3-0.2l-28.5-35.4C161.2,189.3,168.2,193.3,173.7,193.1z M197.5,215.2c0,0.1-0.1,0.2-0.1,0.4c0,0.3-0.1,0.6-0.1,0.9
		c0-0.3,0-0.6,0.1-0.9C197.5,215.4,197.5,215.3,197.5,215.2z M173.6,192.1c-6.5,0.2-15.1-5.6-20-9.4l-0.1-0.1
		C158.5,186.4,167.2,192.2,173.6,192.1z M153,183.4l21.8,27L153,183.4C153,183.4,153,183.4,153,183.4z M149.4,179.3L149.4,179.3
		c-6.9-3.7-13.2-5.5-18.5-6.1C136.3,173.8,142.5,175.6,149.4,179.3z M117.7,174.9c6.8-1.7,17.7-2.1,31.5,5.4l34.4,42.6l0.5,0.1
		l-7.5,6.6c-5.7,0.2-7.4-0.9-7.9-1.3c-0.2-0.2-0.3-0.3-0.3-0.4l-0.3-0.8c-0.6-0.5-5.5-4.6-9.8-3.9c-1.7,0.3-3,1.3-3.9,3
		c-3.3,6.1-6.1,7.7-6.9,8.1l-0.1,0l0,0.1c-0.1,0-0.1,0-0.1,0c-12.2,2.7-20.8-0.9-25.9-4.4c-4.8-3.3-7.4-7.1-8-8.1
		c0-0.6-0.1-3-0.2-5.5c3.5-3.7,5.3-14.1,5.4-14.6l0.1-0.6l-4.6-3.7l-7-17.5C108.1,178.9,111.9,176.3,117.7,174.9z M175.4,230.6
		L175.4,230.6c-4.4,0-6.4-0.7-7.4-1.5C169,229.9,171,230.7,175.4,230.6z M112.7,213.1c-0.1-2-0.2-3.7-0.3-4.5
		c-0.2-1.4,0.6-5.7,1.1-8.8l2.6,2.1C115.5,205.7,114.3,210.3,112.7,213.1z M101.1,187.5c-2.9-3.8-3.4-9.7-1.4-17.4
		c1.8,2.8,4.1,7.8,5,9.8l4.8,12c-0.8-0.1-1.9-0.3-3.1-0.7l0,0l0,0C104.5,190.6,102.6,189.5,101.1,187.5z M89.6,203.7
		c0.1-0.6,0.3-1.1,0.8-1.3c0.9-0.6,2.7-0.4,4-0.1c0.7,1.9,2.4,5.7,4.6,6c0.8,0.1,1.7-0.3,3.3-2.4l-1.1,3.5c-1.6,1.7-1.2,5.5-0.7,8
		h-1C95.4,213.5,89.2,206.3,89.6,203.7z M90.5,248.8c-1.8-2.4,0.3-5.7,0.3-5.8l0.2-0.3l0-0.4c-0.3-2.6-0.5-4.3-0.7-5.6
		c-0.4-2.8-0.5-3.3,0-7.2c0.6-4.5,7.8-9.2,9.1-10h3.6l-0.3-1.3c-0.6-2.5-1.1-6.6,0-7.5l0.2-0.2l3.6-11.8c0.3-0.4,0.5-0.8,0.6-1.3
		c0.4-1.3,0.3-2.8,0-3.9c1.5,0.4,2.7,0.4,3.1,0.4l1.6,4.1c-0.3,1.7-1.7,8.5-1.4,10.7c0.1,1,0.3,3.8,0.4,6.6l0,0l0,0
		c0.2,3.3,0.3,6.6,0.3,6.7l0,0.2l0.1,0.2c0.1,0.1,5.6,9.4,17.4,13.2c0.6,0.8,2.8,4,1.9,7c-0.9,3-3.6,5.2-4.5,5.8h-6.9l-2.6,2
		l-1.1-5.6l-4,0.7l-8.4-6l-0.4-0.2c-0.7-0.1-7.2-1.4-9.6,2.2c-1.5,2.2-0.9,5.6,1.8,10.2C93.5,251.3,91.5,250.2,90.5,248.8z
		 M96.5,250.5c-1.9-3.5-2.4-6.1-1.5-7.5c0.9-1.3,3-1.6,4.6-1.6c0.8,0,1.6,0.1,2.1,0.1l-0.1,4.2l-5.1,0.6L96.5,250.5z M128.4,270.4
		l-10.5-6l5.1-6.7l0.2-0.4c0,0,0.3-1.1,1.4-1.7c0.9-0.5,2.2-0.6,3.8-0.1V270.4z M132.8,272.9L132.8,272.9l-2.4-1.4v-17.5l-0.7-0.2
		c-2.5-0.9-4.6-0.9-6.2,0c-1.5,0.8-2.1,2.2-2.3,2.8l-5.2,6.8l-18.2-10.3l-0.2-0.1c0,0-0.3-0.1-0.6-0.2l1.3-4.9l5-0.6l0.2-4.9
		l7.5,5.4l2.9-0.5l1.3,6.9l4.6-3.6h6.8l0.3-0.2c0.2-0.1,4.2-2.8,5.5-7.1c0.8-2.6-0.1-5.1-1-6.9c2.2,0.5,4.6,0.8,7.3,0.8
		c2.7,0,5.5-0.3,8.4-0.9l6.5,2.7l0.8-1.8l-4.9-2.1c1.6-1.1,3.9-3.4,6.4-8.1c0.6-1.2,1.4-1.8,2.5-2c2.9-0.5,6.8,2.4,7.9,3.2
		c0.1,0.3,0.3,0.8,0.7,1.2c1.2,1.3,3.7,2,7.4,2l-4.3,4.4l1.4,1.4l2.8-2.8l-3,8.1h-15.7v2h17.1l4.7-12.7l2.9,1.6l23.8-1.1
		c1.8,5.1,2.1,9.9,0.9,14.4c-2.1,7.7-8.3,12.2-10.3,13.4l-4.8-3.7v-2h-2v3l4.9,3.9c-3.8,2.3-11.6,6.3-15.8,5.9
		c-5.5-0.6-8.3-4.7-8.4-4.7l-0.3-0.4l-0.5,0c-0.1,0-9.8-0.1-15.8,3c-4.6,2.4-9.7-0.9-10.6-1.6c-0.5-1-1.9-3.8-4-4.7
		c-0.9-0.4-1.8-0.3-2.7,0.1c-3.6,1.7-3.8,5.2-3.8,5.3l0,0.4l0.2,0.3c0.2,0.2,4,5.3,6.5,7.1c1.2,0.9,2.1,4.2,2.6,6.9
		C135.6,276.3,132.9,273.1,132.8,272.9z M205.7,247.9c-0.2,0.5-0.3,1-0.5,1.5l0,0C205.4,248.9,205.5,248.4,205.7,247.9z
		 M204.3,251.3c-2.7,5.3-6.9,8.5-8.8,9.7l0,0C197.3,259.8,201.6,256.5,204.3,251.3C204.3,251.3,204.3,251.3,204.3,251.3z
		 M193.6,262.1c-1.2,0.8-3.7,2.2-6.5,3.5c0,0,0,0,0,0C190,264.3,192.4,262.9,193.6,262.1L193.6,262.1z M185.3,266.4
		c-2.9,1.2-6,2.1-8.3,1.9C179.3,268.5,182.4,267.6,185.3,266.4L185.3,266.4z M170.5,265.8c-1.2-0.9-1.9-1.7-2.4-2.2
		C168.5,264.1,169.3,265,170.5,265.8z M168,263.4C168,263.4,167.9,263.4,168,263.4l-0.2-0.3c0,0,0,0,0,0l0,0
		C167.8,263.2,167.9,263.3,168,263.4z M172.3,275.7c-0.5,0.7-2.3,2.8-7.2,5.1c5.8-2.8,7.3-5.3,7.3-5.3l0,0h0L172.3,275.7z
		 M172.4,274.4l-0.6,0l-0.3,0.5c0,0-2,3.1-10,6.3c-7.5,3-14.1,1.5-19.1-1c-0.3-2-1.2-8-3.6-9.7c-2-1.5-5-5.3-5.9-6.4
		c0.1-0.7,0.6-2.3,2.6-3.3c0.4-0.2,0.7-0.2,1.1,0c1.4,0.5,2.6,2.9,3,3.8l0.1,0.2l0.2,0.2c0.3,0.2,6.7,5.1,13,1.9
		c4.8-2.4,12.4-2.7,14.4-2.8c1,1.3,4.1,4.6,9.5,5.2c2.6,0.3,5.9-0.7,9-2c0.5,1.1,1.3,3.5,1.8,7.1H172.4z M189.5,298.2
		c-0.3-0.4-0.6-0.8-0.9-1.2C188.9,297.4,189.2,297.8,189.5,298.2c6.2,7.3,24.3,7.1,26.2,7.1C214,305.3,195.8,305.6,189.5,298.2z
		 M215.8,305.2C215.8,305.2,215.8,305.2,215.8,305.2c0.2,0,17.6,1.6,27.8,23C233.4,307,216.2,305.3,215.8,305.2z M245.3,332.2
		L245.3,332.2c1.1,1.4,7.3,8.1,33.3,17.2C252.2,340.1,246.2,333.4,245.3,332.2z M278.9,348.4c-26.9-9.4-32.4-16.4-32.9-17
		c-10.1-25.6-30-27.2-30.2-27.2c-0.8,0-19.4,0.5-25.5-6.7c-1.7-2-2.2-4.4-1.6-7.3c2.8-13.4,0.2-21.1-1-23.7c3.9-1.8,7.2-3.9,7.4-4.1
		c0.3-0.2,6.4-3.5,10-10.4c3.4,2.9,14.7,11.8,27.7,11.1l0,0c1,0.1,6.2,0.8,11.8,9.5l0.1,0.2l0.2,0.1c0,0,4.3,2.6,7.8,6.1
		c0.5,0.5,1.1,1.2,1.7,2c3.4,4.2,8.5,10.6,24.8,8.4c2.2-0.3,4.3-0.6,6.2-0.9c13.7-2.1,20-3,41.9,7.4v2.6c-1.2,0.4-3.4,1.5-4.6,4.2
		c-2.2,5.2,0.6,13.5,8.4,24.7l0.1,0.1c0,0,0.5,0.5,0.4,1.6c-1,8.2-28.1,20.8-40.3,26C283.6,350,279,348.4,278.9,348.4z M328.7,322
		c-4.5-7.3-6.4-13-5.6-17.1C322.5,308.1,323.4,313.4,328.7,322z M311.3,373.8L311.3,373.8C311.3,373.7,311.3,373.7,311.3,373.8
		L311.3,373.8C311.3,373.7,311.3,373.8,311.3,373.8C311.3,373.8,311.3,373.8,311.3,373.8z M347.9,377.9c1,0.1,11.4,1.2,35.9,11.2
		C359.7,379.2,349,378,347.9,377.9z M400.3,386.6l-6,1.2L400.3,386.6l0.1-0.1c0-0.1,0.1-0.2,0.2-0.3
		C400.4,386.4,400.3,386.6,400.3,386.6z M432.4,380.5c-6.1-6.6-11.2-6.1-15.8-5.7c-1.1,0.1-2.1,0.2-3.1,0.2
		c-5.2,0-12.2,8.6-13.9,10.7l-14.5,2.9c-26.2-10.9-36.9-11.7-37.4-11.8l-0.2,0c-31.6,5.4-35.4-3.4-35.4-3.5l-0.1-0.2L312,373
		c-7.2-7.4-13.5-12.7-18.7-16.4c25.6-11.2,39.5-20.5,40.3-27.1c0.2-1.9-0.7-2.9-1-3.3c-9.1-13-9.4-19.5-8.1-22.6c1-2.3,3-3,3.7-3.2
		l4,2.1l66.2,15.6l0,0.1l0.2-0.1l3.4,0.8l5.4,7.1l21.1,5.4l7.5-3.9c1.1,4.3,5.1,16.8,16.5,22.9c5.9,3.1,12.8,4,20.7,2.7l7,8.3
		l-7.2,7.3l-0.1,0l0,0.1l-4.2,4.3l-0.1,0.1C458.4,390.6,434.6,381.4,432.4,380.5z M331.9,326.9L331.9,326.9
		C331.8,326.8,331.8,326.8,331.9,326.9L331.9,326.9C331.9,326.9,331.9,326.9,331.9,326.9C331.9,326.9,331.9,326.9,331.9,326.9
		C331.9,326.9,331.9,326.9,331.9,326.9z M469.5,373.8L469.5,373.8c-0.3,0.5-0.6,1-1,1.5C468.8,374.9,469.1,374.4,469.5,373.8
		L469.5,373.8z M458.8,383c-3,1.2-6.3,1.8-10.1,1.8c-6.3,0-12-1.7-14.9-2.7c0,0,0,0,0,0C438.3,383.6,449.4,386.6,458.8,383z
		 M434,383.7c-0.2-0.3-0.4-0.5-0.6-0.7C433.5,383.2,433.8,383.5,434,383.7c0.4,0.4,0.7,0.9,1.1,1.3
		C434.7,384.6,434.3,384.2,434,383.7z M457,397.9c1.4,0.2,2.8,0.3,4.4,0.4C459.8,398.3,458.3,398.1,457,397.9z M482.4,402.9
		c-1.5,0.8-5.3-2-8-4.5c3-0.5,5.8-1.4,8.2-2.5C483.8,401.2,483,402.6,482.4,402.9z M472.8,396.7c-23,3.3-31.2-5.7-37.7-13.1
		c3.2,1,8.2,2.2,13.7,2.2c9.8,0,17-3.8,21.5-11.3l3.7-3.7l19.5-1.3c0.4,2.7,1.1,11.3-3.7,18.1C486.2,392.5,480.5,395.6,472.8,396.7z
		 M490.5,388.1c-0.5,0.7-1,1.3-1.5,1.9C489.5,389.4,490,388.8,490.5,388.1c1.7-2.4,2.7-5,3.3-7.5l0,0
		C493.2,383.1,492.2,385.7,490.5,388.1z M493.6,367.4l-17.6,1.1l11.2-11.4l3.5-3C492.9,358.4,495.1,363.9,493.6,367.4z M494.2,378.7
		L494.2,378.7c0.7-4.1,0.4-7.6,0.1-9.3l0,0C494.6,371,494.9,374.6,494.2,378.7z M494.8,366.9c0-0.1,0-0.1,0-0.2l0,0
		C494.8,366.8,494.8,366.8,494.8,366.9z M495.1,364.7c0-3.6-1.8-7.8-3.6-11.2l0,0C493.3,356.9,495.1,361.1,495.1,364.7L495.1,364.7z
		 M504.1,393.2l-1.2-2.4l2.1-10.7l-9.7-1.3c0.8-4.9,0.2-9.1,0-10.3c0.2-0.4,0.4-0.9,0.5-1.3l25.3,13.9L504.1,393.2z M523,379.9
		l-27-14.8c0.1-3.9-1.9-8.6-3.8-12.3l3.3-2.8l34.5-12.9l7.6,13.9l0.5,0.1c0.2,0,15.3,1.7,18.1,8.9c1.2,3.1-0.2,7-4.1,11.5L523,379.9
		z M552.8,372.3l-10.1,2.9L552.8,372.3C552.8,372.3,552.8,372.3,552.8,372.3z M553.1,372c3.3-3.8,4.9-7.2,4.7-10.2
		C557.9,364.7,556.4,368.2,553.1,372z"/>
</g>
</svg>
